<svg xmlns="http://www.w3.org/2000/svg" viewBox="0 0 24 24"><path d="M2.31,12.71a8.9,8.9,0,0,0,.87.86c.53.49,1.33,1,2.19,1.81A3.42,3.42,0,0,1,5,14.65c-.08-.27,0-.42.85-.12l.25.1a3,3,0,0,0,.77.16,2.44,2.44,0,0,0,1.4-.26,2.21,2.21,0,0,0,.8-.66,2.48,2.48,0,0,0,.37-.81.42.42,0,0,1,.08-.14.93.93,0,0,1,.51-.26,1,1,0,0,1,.77.17.76.76,0,0,1,.17.78l.18-.5a5,5,0,0,1,.5-1,1.45,1.45,0,0,1,1-.67,1.36,1.36,0,0,1,1.33.84,1,1,0,0,0,.1-.33,1.28,1.28,0,0,0-.19-.87,2.25,2.25,0,0,0-1.35-1A3.31,3.31,0,0,0,11.19,10l-.36.06-.33.09a4.08,4.08,0,0,0-.72.32,5.37,5.37,0,0,0-.7.6,4.52,4.52,0,0,0-.57.73,2.27,2.27,0,0,0-.34,1,1.27,1.27,0,0,1-.29.75,1.52,1.52,0,0,1-.72.46,2.43,2.43,0,0,1-1.57-.12s-.18,0-.21-.15.14-.24.62-.75a3.2,3.2,0,0,1-.36.22,3.75,3.75,0,0,1-1,.34,2.58,2.58,0,0,1-1.31-.12A2.49,2.49,0,0,1,2.31,12.71Z" style="fill:#e91d8d"/><path d="M5.49,5.84a5.84,5.84,0,0,1-.12-4.6,1.36,1.36,0,0,1,.3-.52A.58.58,0,0,1,6.23.54c.28,0,.43.39.52.67a17.75,17.75,0,0,0,.92,2.36,5,5,0,0,0,1.65,1.9,2.93,2.93,0,0,0,2.42.42,2.32,2.32,0,0,1-.87,1.51l-.13-.53-.16-.19v.17l-.46-.06.12-.17H9.32a.41.41,0,0,0-.55-.17H8.69A4,4,0,0,1,6.52,3.94,6.64,6.64,0,0,0,6,2.19,19.8,19.8,0,0,0,5.54,6.1a5.2,5.2,0,0,1-.25-4.55"/><path d="M6.07,2.75l.32,1.47A3.27,3.27,0,0,1,6.48,5a.93.93,0,0,1-.38.69,1.25,1.25,0,0,1-.3-.83A4,4,0,0,1,5.92,4l.22-1.14"/><path d="M6.74,4.91a1.45,1.45,0,0,1,.34.47.89.89,0,0,1,0,.51,2.11,2.11,0,0,1-.21.46.29.29,0,0,1-.25.24,2.22,2.22,0,0,1-.3-.49.66.66,0,0,1,0-.55l.25-.3a.32.32,0,0,0,0-.35"/><path d="M7.31,5.66a.78.78,0,0,1,.46.43.68.68,0,0,1,0,.4,1.4,1.4,0,0,1-.2.43A.4.4,0,0,1,7.14,7,.46.46,0,0,1,7,6.76a1,1,0,0,1,0-.34,2.65,2.65,0,0,1,.41-.78"/><path d="M8,6.22a.61.61,0,0,1,.47.24.64.64,0,0,1,0,.47l-.14.38a.87.87,0,0,1-.14.27.25.25,0,0,1-.27.08.27.27,0,0,1-.19-.26,1.27,1.27,0,0,1,.13-.32A1.8,1.8,0,0,0,8,6.26"/><path d="M8.61,6.7,8.5,7.91l.44.18a3.62,3.62,0,0,0,.21-1.3l-.54-.11"/><path d="M9.36,6.85l-.2.86a1.31,1.31,0,0,0,0,.28.29.29,0,0,0,.12.24.33.33,0,0,0,.38,0A.77.77,0,0,0,10,7.4a.78.78,0,0,0-.62-.61"/><path d="M10.13,7a.79.79,0,0,1,.82.73h0a.32.32,0,0,1-.11.27.17.17,0,0,1-.24,0s0,0,0,0a.12.12,0,0,1-.19.08.36.36,0,0,1-.13-.22l-.17-.71"/><path d="M10.19,8a.23.23,0,0,0,.1.15l.16.11a.59.59,0,0,1,.2.57,1.62,1.62,0,0,0,0,.62,2.39,2.39,0,0,1-.52-1.4"/><path d="M9.64,8.49l.28-.24a1.06,1.06,0,0,0,.15.65.85.85,0,0,1,.11.64,1.78,1.78,0,0,1-.51-.81.74.74,0,0,1,0-.21.21.21,0,0,1,.12-.17"/><path d="M9.29,8.26a1,1,0,0,1,.3.73l.08.59v.15H9.58a2.45,2.45,0,0,1-.73-.87.7.7,0,0,1-.11-.38A.28.28,0,0,1,9,8.25"/><path d="M8.2,7.75l.23.5.18.45a3.46,3.46,0,0,1,.24,1.55,2.31,2.31,0,0,1-.76-2.38"/><path d="M9,9.5a.52.52,0,0,0,.2.26,1.13,1.13,0,0,1,.35.88c-.15,0-.24-.2-.3-.36L9,9.43"/><path d="M8,9.37a3.62,3.62,0,0,1,.58,1.81,2.62,2.62,0,0,1-.7-1.76"/><path d="M7.86,8v2.6l-.52-1.3a1.91,1.91,0,0,1-.21-.74,2.22,2.22,0,0,1,.29-1L7.94,8"/><path d="M6.58,6.93A.39.39,0,0,1,7,7.21H7a1.22,1.22,0,0,1,0,.6A5.11,5.11,0,0,0,7,9.73a2.27,2.27,0,0,1-.5-1.3A5.55,5.55,0,0,1,6.54,7"/><path d="M5.71,5.6a1.1,1.1,0,0,1,.55.9,6.46,6.46,0,0,1,0,.88l-.12,1.9a5.76,5.76,0,0,1-.42-3.52"/><path d="M5.07,5.62A16.45,16.45,0,0,1,5.69,12a7.46,7.46,0,0,1-.76-3.11,23.13,23.13,0,0,1,.14-3.22"/><path d="M6,9.33l.21.36.25-.5a16.6,16.6,0,0,0,.65,4.75A5.52,5.52,0,0,1,6,9.46"/><path d="M6.79,9.71l.3.53.21-.69.39,3.35A12.16,12.16,0,0,0,7,11.34a2.43,2.43,0,0,1-.22-1.67"/><path d="M8,9.33a4.37,4.37,0,0,0,.64,2A3.37,3.37,0,0,0,8,9.26"/><path d="M5.48.56A8.06,8.06,0,0,0,4.7,4.8V7.05a51.54,51.54,0,0,0,.36,5.41,4.54,4.54,0,0,1-.88-2.26,19.11,19.11,0,0,1,.58-9A1.54,1.54,0,0,1,5,.73.49.49,0,0,1,5.39.52"/><path d="M5.89,12.18A12.66,12.66,0,0,0,7.94,17.5a4.18,4.18,0,0,1-2.18-2.1A3.24,3.24,0,0,0,7.42,17a8.31,8.31,0,0,1-1.3-2.93l-.37.65-.17-.6A.22.22,0,0,1,5.32,14v0a.14.14,0,0,1,0-.09l.38.23L6,12.42V13"/><path d="M4.78,1.19,4.13,2.8a3,3,0,0,1-.58,1.06c-.28.27-.68.52-.72.91A7,7,0,0,1,4.7,1.25"/><path d="M2.1,6.57l.44-1.39v.24l.21-.27.34-.43a2.36,2.36,0,0,1-.21.82,2.53,2.53,0,0,1-.4.65l-.38.54V6.4"/><path d="M2.36,6.84a4.49,4.49,0,0,0-.53,2.61A10.32,10.32,0,0,0,2.41,7"/><path d="M3.9,3.6V7.75c0,1.84.07,3.68-.08,5.5a6.59,6.59,0,0,1-.66-2.86A23,23,0,0,1,3.14,7,7.87,7.87,0,0,1,4,3.72"/><path d="M3.4,4.8a3.84,3.84,0,0,0-.5,2A11.4,11.4,0,0,1,2.77,9c-.15.77-.67,1.53-.76,2.36.21-1.11.21-2.24.34-3.36a6.94,6.94,0,0,1,1-3.15"/><path d="M2.82,14.46a1.28,1.28,0,0,1,.17-1,1.06,1.06,0,0,0,.23-.86.92.92,0,0,1,.3.63,2.18,2.18,0,0,1,0,.72l-.24,1.52v-1a1.36,1.36,0,0,0-.11-.6l-.32.74-.08-.5"/><path d="M6,12.4a11,11,0,0,0,2,5,3.53,3.53,0,0,1-2.25-2.1,7.7,7.7,0,0,0,1.52,1.55A20.51,20.51,0,0,1,6,14.2l-.22.6-.18-.49-.38-.39.48.13.14-1.81a1.91,1.91,0,0,1,.27,1.3"/><path d="M2.82,9.46a5.16,5.16,0,0,1,.31,1.4,5.26,5.26,0,0,1-.25,1.57l-.5,2a9.63,9.63,0,0,1,.46-4.76"/><path d="M3.26,12.61c0,.25.19.47.26.72a2.08,2.08,0,0,1,0,1.16,5.83,5.83,0,0,1-.37,1.09V14.06l-.32.55a2.26,2.26,0,0,1,.45-2"/><path d="M4.41,11.82,5.09,14a14.48,14.48,0,0,0,1,2.61,18.72,18.72,0,0,0,1.07,1.61l.93,1.3a2.72,2.72,0,0,1-1.53-1.13A19.54,19.54,0,0,1,4.94,16.1l.41.47-.52-1.79a1.61,1.61,0,0,0-.58-1,4,4,0,0,1,0-1.79l.26.85"/><path d="M5.84,18.5l.07.18a.13.13,0,0,0-.14.11.26.26,0,0,0,0,.21,1.4,1.4,0,0,0,.65.8,3.25,3.25,0,0,1-.73,3.14l-.12-4.52h.25"/><path d="M3.82,13.92a1.66,1.66,0,0,1,.54.88l1.09,3.26a9.12,9.12,0,0,1-1.22-1.68,1,1,0,0,1,.55.69A9.32,9.32,0,0,0,4,14.14"/><path d="M5.78,18.32l-.13-.68a2.12,2.12,0,0,0,.85.83l-.34-.18a.26.26,0,0,0-.21,0c-.08,0-.12.13,0,.17"/><path d="M3.67,17.25a3.14,3.14,0,0,1-1.42,3.18l.55-.94.54-.65a2.21,2.21,0,0,0,.28-.4.66.66,0,0,0,0-.48"/><path d="M3.2,17.71h.2A.89.89,0,0,0,3,17.07a.35.35,0,0,0,.09.35.61.61,0,0,1,.17.34"/><path d="M3.41,18l-.16.76" style="fill:none"/><path d="M3.15,16.73l.21.39" style="fill:none"/><path d="M3.63,16.31l.1.45" style="fill:none"/><path d="M4.52,18l-.17,1.3" style="fill:none"/><path d="M6.3,18.77v.93" style="fill:none"/><path d="M4,14.66l.29.86" style="fill:none"/><path d="M6,14.61l.11.56" style="fill:none"/><path d="M4.15,18.22a9.35,9.35,0,0,1-.92,5,6,6,0,0,0,1.78-5,1.55,1.55,0,0,1-.34,1.31l-.61-1.06"/><path d="M6.42,19.76l-.15-.89"/><path d="M5,19.43l.08-.82"/><path d="M4.46,19.13l.17-.93"/><path d="M3.41,18l-.16.69"/><path d="M3.17,16.86l.15.22"/><path d="M3.67,16.25v.52"/><path d="M3.94,16.38A8.18,8.18,0,0,0,5.08,18.2"/><path d="M4,14.75l.22.7"/><path d="M5.79,14.63l.46,1.59"/><path d="M2.6,15.17c-.07.44-.13.8-.18,1a.74.74,0,0,0,0,.36.46.46,0,0,0,.19.24s.18.13.28.06.06-.12.06-.15A8.56,8.56,0,0,0,2.6,15.17Z"/><path d="M3.36,15.86a.45.45,0,0,1,.19-.38c.22-.19.17-.46.22-.19a1.06,1.06,0,0,1-.1.57Z"/><path d="M12.12,5.9a5.27,5.27,0,0,0,3.51-1.15,9.58,9.58,0,0,0,1.48-3.4c.14-.4.43-.84.85-.84s.7.45.84.84a5.82,5.82,0,0,1-.41,4.79,14.54,14.54,0,0,0-.47-3.77c-.24.83-.51,1.65-.77,2.47A5.62,5.62,0,0,1,14.9,6.63l-.11-.24-2.16.73-.55-1.21"/><path d="M13.33,7.08a1,1,0,0,0-.4.67.24.24,0,0,0,.11.3.21.21,0,0,0,.19,0l.14-.14a2,2,0,0,0,.32-.84.4.4,0,0,0-.42.09"/><path d="M13.82,7l.58-.17a2.89,2.89,0,0,1,.19.81.69.69,0,0,1,0,.45.34.34,0,0,1-.33.18c-.19,0-.31-.22-.36-.4a1.89,1.89,0,0,1,0-.82"/><path d="M14.7,6.7a.58.58,0,0,0,.51-.11l.16,1a.53.53,0,0,1,0,.25.28.28,0,0,1-.14.2A.26.26,0,0,1,15,7.94a.54.54,0,0,1-.09-.25,2.12,2.12,0,0,1-.12-.93"/><path d="M15.44,6.48a.68.68,0,0,0,.47-.28l.26.77a1.12,1.12,0,0,1,0,.41.37.37,0,0,1-.25.35.34.34,0,0,1-.29-.08.68.68,0,0,1-.13-.27,2.72,2.72,0,0,1-.12-.9"/><path d="M16.21,6.07a.24.24,0,0,1,.15-.28.24.24,0,0,1,.3.11c.12.2,0,.48.1.65a.27.27,0,0,1,.12.37v0a.3.3,0,0,1-.3.14.48.48,0,0,1-.37-.32,1.26,1.26,0,0,1-.08-.69"/><path d="M16.74,5.53a.87.87,0,0,0,.41-.61,3,3,0,0,1,.24.43,1.38,1.38,0,0,1,.13.72.85.85,0,0,1-.34.62l-.46-1.16"/><path d="M17.88,3,17.53,4.5a2,2,0,0,0-.07.68.68.68,0,0,0,.38.53,1.8,1.8,0,0,0,.4-1.32A5.25,5.25,0,0,0,17.89,3"/><path d="M18.63.6a5.5,5.5,0,0,1,.52,1.67,10.49,10.49,0,0,1,0,2.17L19,7.39a23.74,23.74,0,0,1-.19,2.52c-.17,1.16-.42,2.32-.69,3.47a4.72,4.72,0,0,0,1.32-2.51A18,18,0,0,0,19,.57h-.4"/><path d="M13.12,8.42a.67.67,0,0,0,.46-.3,1.41,1.41,0,0,1-.44,1.31V8.51"/><path d="M13.86,8.28l.3.22a1.07,1.07,0,0,1-.28.72l-.25.34a2.63,2.63,0,0,1,.13-1.18"/><path d="M14.26,8.68a.79.79,0,0,0,.41-.45.26.26,0,0,1,.33.13.7.7,0,0,1,0,.38.86.86,0,0,1-.15.44,1.22,1.22,0,0,1-.41.27.55.55,0,0,0-.34.34,3.45,3.45,0,0,1,.07-1.11"/><path d="M15.65,7.82a2,2,0,0,1,0,1.31A4.93,4.93,0,0,1,15,10.37a1.6,1.6,0,0,1,0-.92,9.18,9.18,0,0,0,.28-.89c.08-.31.07-.58.28-.74"/><path d="M14.76,9.59l-.1.6-.16-.08-.27.62a.93.93,0,0,1,.42-1.1"/><path d="M15.32,8.27l.2-.43h.12a1,1,0,0,1,.16.7,2.74,2.74,0,0,1-.23.7c-.2.42-.41.84-.62,1.31a2.79,2.79,0,0,1,.53-2.07"/><path d="M16,8a.46.46,0,0,0,.52-.4,3.24,3.24,0,0,1-.65,3.06l.1-1.19a5.19,5.19,0,0,0,0-1.42"/><path d="M16.74,7.38l.6-.46a3.73,3.73,0,0,1-.42,3,2.25,2.25,0,0,1,0-1.31,1.73,1.73,0,0,0-.14-1.32"/><path d="M17.64,6.81A2.3,2.3,0,0,1,18,5.67a1.53,1.53,0,0,1,.32,1,3.91,3.91,0,0,1-.21,1.07l-.44,1.6-.17-2.62"/><path d="M18.76,5.83a11.81,11.81,0,0,1-.71,6.25,15.19,15.19,0,0,1,0-2.78,11.9,11.9,0,0,1,.23-1.19l.45-2"/><path d="M17.35,9.32l.12.45.28-.21a8.8,8.8,0,0,1-1.15,4.68,37.14,37.14,0,0,0,.55-3.93l.1-.89.06.09"/><path d="M16.58,9.79v.49L17,10l-1,3a29.81,29.81,0,0,1,.49-3.1"/><path d="M15.78,9.48a3.31,3.31,0,0,1-.68,1.83,4.56,4.56,0,0,1,.59-1.79"/><path d="M14.59,9.62a1.56,1.56,0,0,0-.53.78.25.25,0,0,0,0,.17s0,.11.1.11a.78.78,0,0,1,.23-.38l.25-.17a.79.79,0,0,0,.18-.51"/><path d="M20,3.76a54.64,54.64,0,0,1-.18,7.78l-.14,1.91A8.23,8.23,0,0,0,21,9.52a16.16,16.16,0,0,0-.51-4.15c-.12-.57-.25-1.15-.42-1.72L20,4"/><path d="M20.74,4.77a18.76,18.76,0,0,1,1,6.56,27.41,27.41,0,0,1-.94-6.56v.58"/><path d="M21,5a1.94,1.94,0,0,1,.51,1.23.93.93,0,0,1,.39.5.89.89,0,0,0,0-.75c-.11-.28-.39-.51-.39-.8v.42L21,5"/><path d="M21.67,7.08a3.85,3.85,0,0,1,.49,2.48A8.15,8.15,0,0,1,21.64,7"/><path d="M21,9.6a13.4,13.4,0,0,1,.42,4.88,5.9,5.9,0,0,1-.74-2.82c0-.24.07-.47.12-.7l.26-1.15"/><path d="M17.78,12.47a5.61,5.61,0,0,1-.46,1.72c-.17.42-.33.84-.51,1.23-.36.76-.81,1.44-1.22,2.15a3.27,3.27,0,0,0,1.9-1.48A4.78,4.78,0,0,0,18,14.44a.78.78,0,0,0,.34-.47l-.4.38a2.13,2.13,0,0,1-.33-1.59"/><path d="M19.39,12.26A50.17,50.17,0,0,1,17,17.5a7.52,7.52,0,0,1-1.44,2.05,5.92,5.92,0,0,0,3-3.26,9.22,9.22,0,0,1-1.68,1.95,9.35,9.35,0,0,1,.77-1.67l.74-1.31.61-1.93.24,1.14.18-2.23"/><path d="M20.26,16,20.12,14a.77.77,0,0,1,0-.37,1.24,1.24,0,0,1,.25-.35.47.47,0,0,0,.13-.39,3.51,3.51,0,0,1,.11,2.92,2,2,0,0,1-.06-1.6.82.82,0,0,0,.11-.31.27.27,0,0,0-.17-.25.24.24,0,0,0-.24.14.71.71,0,0,0,0,.29V16.1L20.11,16"/><path d="M19.3,14.5a6.63,6.63,0,0,0,.16-2.22,2.69,2.69,0,0,0-.69,1.31,17.68,17.68,0,0,1-3.3,6,8,8,0,0,0,3.33-3.4L17,18.2a17.29,17.29,0,0,0,2.11-4.55l.17.86"/><path d="M19.81,15.26l.11-1.14L18,18.33a9.85,9.85,0,0,0,1.46-1.57l-.85.89,1.08-2.85.09.31"/><path d="M20.11,17.89a.56.56,0,0,0,.48-.38"/><path d="M17.69,18.6l.34-.68a5.44,5.44,0,0,0-.88.85.84.84,0,0,1,.51-.24" style="fill:none"/><path d="M18.41,18.43a3.34,3.34,0,0,0,1.2-1.38,9,9,0,0,0-.22,2,11,11,0,0,0,.27,1.81l.53,2.63a18.34,18.34,0,0,1-1.23-2,5.68,5.68,0,0,1-.63-2.22,5.65,5.65,0,0,0,.65,2c.13-.4-.26-.8-.23-1.22a1.07,1.07,0,0,1,.1-.39l.73-2"/><path d="M16.86,20l.27,1.66A2.08,2.08,0,0,0,17.67,23l.4-4.21h-.42a.45.45,0,0,1,0,.5,3,3,0,0,0-.31.48,1.22,1.22,0,0,0,0,.6l.13,1.32-.57-1.59"/><path d="M19.83,18.56a4,4,0,0,0,.78,1.53,2.14,2.14,0,0,0,.63.49,6.43,6.43,0,0,1-.58-2.8,2.94,2.94,0,0,0-.13,1.71l-.18-.29-.08.14-.36-.85-.17.18"/><path d="M19.4,1.36A6,6,0,0,0,21.33,5a7.44,7.44,0,0,0-2-3.87v.3"/><path d="M18.51,16.07,19,14.41"/><path d="M20.94,16.26c-.28.29-.36.39-.4.53s-.07.23,0,.27.16-.08.25-.17a1.53,1.53,0,0,0,.29-.37c.12-.21.23-.52.18-.55S21.21,16,20.94,16.26Z"/><path d="M12.4,2.8l.43,5.53A10.72,10.72,0,0,1,14.58,4,4.28,4.28,0,0,1,16.71,2.1,3.13,3.13,0,0,1,18.37,2a5.8,5.8,0,0,1,.73.28c.39.17.59.25.65.37s-.08.53-.46,1.2c-.17.29-.41.73-.69,1.26a3.7,3.7,0,0,0-2.09-.78,2.44,2.44,0,0,0-2,.64c-.35.42-.3.92-.3,1.77,0,1.07-.1,2.14-.07,3.21,0,2-.1,2.1-.09,5.74,0,1.43,0,2.17.55,2.84a2.28,2.28,0,0,0,2,1,1.68,1.68,0,0,0,.9-.62c.3-.39.2-.61.56-1.39.14-.28.29-.56.46-.83.25-.43.48-.77.65-1-.07.41-.17.81-.28,1.21a10.15,10.15,0,0,1-1.32,2.78c-.86,1.27-1.32,1.77-2.05,2.07a1.87,1.87,0,0,1-2.45-1,1.19,1.19,0,0,1-.72.65l-.59-7.82a33.16,33.16,0,0,1-2,5.25A5.93,5.93,0,0,1,8,21.19a2.47,2.47,0,0,1-1.39.67,2.26,2.26,0,0,1-1.37-.36,2.31,2.31,0,0,1-.95-1.12,2.75,2.75,0,0,1,0-1.63,6.31,6.31,0,0,1,1.47-2.68,2.45,2.45,0,0,0,.47,2.81A2.18,2.18,0,0,0,9.08,19c.34-.3.64-.63,1-2a23.57,23.57,0,0,0,.77-5.34c.06-1,0-.65.1-2.77,0-1,.07-1.77,0-2.93,0-.39,0-.73,0-1a8,8,0,0,1,.92-1.57C12.06,3.19,12.22,3,12.4,2.8Z"/></svg>