<svg version="1" xmlns="http://www.w3.org/2000/svg" width="933.333" height="933.333" viewBox="0 0 700.000000 700.000000"><path d="M560.5 10.7c-24.9 5.1-39.8 12.9-56.7 29.7-27.7 27.7-51.7 68.9-66.8 114.8-3.4 10.5-4.5 12.8-6.1 12.8-1.1 0-1.9-.7-2-1.8 0-.9-.2-3.3-.4-5.2-.1-1.9-.6-7.3-.9-12-.4-4.7-.9-10.5-1.1-13-.3-2.5-.7-8.6-1-13.5-.4-5-.8-11-1-13.5-.2-2.5-.7-8.6-1-13.5-.4-5-.8-10.6-1-12.5-.2-1.9-.6-7.8-1-13s-.9-11.1-1-13c-.2-1.9-.7-8.2-1-14-.4-5.8-.8-10.7-1-10.8-.5-.5-6.8 6.3-13.4 14.3-11.7 14.2-23.7 33.1-30.7 48.3-3.4 7.2-3.4 7.3-2.8 18 .3 5.9.7 21 .8 33.5.3 18.6.1 23-1 23.4-2.4.9-15.9-2.7-23-6.1-12.4-5.9-29.2-21.1-38.3-34.5-8.2-12-17.6-32.9-27.1-60.3-2.6-7.6-5.6-15.2-6.6-16.9-6.8-11.6-19.4-9.4-26.6 4.6-3 5.8-10.7 30.2-12.1 38.5-1 5.7-1.4 13.4-1.2 23 .3 16.3.7 19 4.2 31 2.2 7.8 9.2 25.4 9.8 24.8.2-.2.6-5.9 1-12.8.3-6.9.8-13.9 1-15.5.2-1.7.7-6.4 1-10.5.4-4.1.9-8.4 1-9.5.3-1.8.8-4.8 2.1-14.5.6-3.9.6-4.2 2.9-15.5 2.1-11.1 2.5-12.1 3.6-10.4 1.6 2.6 5.7 16.3 8.3 27.9 6.8 29.7 21 49.9 45.4 64.5 5.5 3.2 6.7 3.6 8.8 2.6 4-1.8 7.9-1.3 10.5 1.3 2.4 2.4 6.8 3.1 21.8 3.5 2.3.1 2.4.2.6 2.1-1.4 1.5-1.5 2-.4 2 .8.1 3.2.3 5.3.6 3 .5 4.1.2 4.8-1 1.6-2.8 3.9.6 3.6 5.4-.1 2.2-.2 4-.3 4l-4-2c-4.4-2.3-9.1-2.6-9.8-.8-.4 1.4 3.9 18.1 5.4 20.9 1 1.9 4.6 3.1 5.5 1.8 1.3-2.2 2.4.6 2.3 5.7-.2 6-.9 6.6-2.9 2.9-.7-1.4-1.7-2.5-2.1-2.5-.4 0-2.1-1.3-3.8-2.9l-3.1-2.9v4.3c0 7 3.8 18 9.4 26.8 1 1.5 1.3 4.6 1.1 9.7-.2 4.1-.4 10.5-.6 14.2-.1 4.7-.6 6.8-1.5 6.8-2.4 0-2.5 2-.2 2.9 1.7.7 1.8 1 .6 1-1.2.1-1.6.7-1.2 1.8.5 1.5.4 1.5-.4.3-.6-.8-.9-1.7-.6-2.1.2-.4 0-1-.5-1.4-.6-.3-.8-1.2-.4-2 .3-.8 0-1.5-.5-1.5-.6 0-1.3.8-1.5 1.7-.3 1-.5.4-.4-1.2.1-1.7.9-3.3 1.7-3.7 1-.5.7-.7-1-.5-1.7.1-2.8-.5-3.6-2.1-1-2-1.2-2.1-1.8-.7-.9 2.3-.8 2.7.6 1.9.7-.5.8-.3.3.6-.6.9-.4 1.1.5.5.9-.6 1.1-.4.5.5-.5.8-.4 1.1.3.6.6-.3 1.3-.2 1.6.3 1.4 2.2-1.6 2.1-3.4-.1-1.1-1.3-1.9-1.8-2-1.3 0 .6.6 1.7 1.3 2.5 1 1.2.9 1.2-.5.1-1.7-1.3-1.8-4.6-.3-7.1.3-.5.1-1.8-.5-2.7-.9-1.5-1-1.4-.4.7.3 1.4.3 2.2-.1 1.8-.3-.3-2-.2-3.7.2-2.5.8-2.8.7-1.8-.5.7-.8 1.6-1.3 1.9-1 .4.2.8-.2.8-1 0-1.1-.5-1-2.4.2-1.2.8-2.3 1.2-2.3.8 0-.4-.6-.2-1.4.4-1.1 1-1.3.4-1.1-3.6.1-2.6 0-4-.2-3.1-.2 1-.8 1.8-1.3 1.8s-.9-.8-.9-1.8c-.1-3.8-.5-5.1-1.3-4.6-.4.3-.3 1.4.2 2.5.7 1.3.7 1.9 0 1.9-.5 0-1-.7-1-1.5 0-.7-.8-1.8-1.7-2.4-1.4-.7-1.5-1.2-.5-2.3.9-1.2.9-1.5-.3-1.5-.8 0-1.2.4-.9.9.3.4.1.8-.5.8-1.8 0-2.3-2.1-.9-3.7 1.2-1.5 1.1-1.5-1.2 0-3.2 2.3-4.3 2.2-2.8-.3 1-1.6 1-2.2 0-3.2-1.1-1.1-1.2-1-.6.5.3.9.1 2.4-.5 3.1-1.4 1.7.2 3.2 2.1 2 .7-.4.8-.3.4.4s-.2 1.2.4 1.2c.7 0 1 .5.8 1.1-.2.6-.8.9-1.3.7-.6-.2-.9-.6-.8-1.1.3-.7-1.3-1.1-3-.8-.5.1-.6-.3-.3-.8.4-.5.3-1.2-.2-1.5-.4-.2-.7-2.3-.7-4.5s-.2-3.8-.4-3.5c-.3.3-1.3-2.4-2.3-6-1.9-7.1-10.7-26.9-12.3-27.6-1.9-.9-3.6 4.9-3.9 13.3-.1 4.6-.6 9-1.1 9.7-.5.9-.4 1.1.3.6 1.5-.9 1.5-.5.2 3.1-.9 2.6-.9 2.7.5.9.8-1.1 1.5-1.5 1.5-.9s-.7 1.6-1.6 2.4c-1.3 1-1.7 1-2.4-.1-.5-.8-.5-1.9.1-2.6.6-.7.4-1.6-.6-2.4-1.2-1-1.3-1.6-.4-2.6.6-.8.7-1.4.2-1.4-.5 0-.8-3.5-.7-7.8l.2-7.7-5.1-5.3c-2.8-2.8-5.4-5.2-5.8-5.2-1.3 0-7.1 17-7.3 21.2-.1.9-.5 2-1 2.5-.5.4-.6.3-.3-.3.4-.7.1-1.7-.7-2.3-1.5-1.3-1.3-6.8.5-15.7 1.3-6.6 1-12.2-1-15.6-2.2-3.9-9.5-6-9.7-2.8-.2 7.7-1.8 17.9-2.7 17.3-.6-.4-.7-.1-.1.8 1.1 1.7 1.3 9 .3 8.3-.4-.2-1 0-1.3.5-.4.5.2 1.2 1.1 1.4 1.4.4 1.4.5-.3.6-1.2 0-2.5-.6-2.8-1.5-.3-.8-1.1-1.2-1.7-.8-.8.5-.9.3-.3-.7.4-.8.9-9.8 1.1-20.1.2-15.1-.1-19.7-1.4-23.5-2.1-6.3-5.1-10.8-8.5-12.8-2.8-1.6-2.8-1.6-2.9 1.2 0 1.5-.2 3.7-.5 4.8-1.6 8-2.6 37.5-1.2 37.5.8 0 .5 7.6-.3 8.4-.3.3-.6 0-.7-.7-.1-.6-.4-2.3-.6-3.7-.3-1.4-.8-3.9-1.1-5.6-1.1-5.8-7.8-34.6-9.4-39.9-.8-3-.8-2.9-1.4 1.5-1.5 10.4-3 29.5-3.1 38.6-.1 2.5-.5 4-1.2 3.7-.6-.2-1.1-.9-1.1-1.6-1.3-19.5-2-93.1-1-103.7 1.2-13.2 2-18.1 4.3-27.7 2.4-10 7.1-22.6 9.9-27 2.3-3.4 1.9-4.6-1.2-3.8-6.2 1.5-9.1 6.6-14.2 24.4-2.2 7.8-4.3 15.2-4.5 16.4-.3 1.2-1.1 5.1-2 8.7-.8 3.6-1.7 7.8-2 9.4-.3 1.6-1 5.2-1.5 8-1.6 8-2.1 10.7-2.6 16.5-.3 3-.7 5.7-.9 6-.2.3-.7 4.4-1.1 9.1-.4 4.7-.9 9.3-1.1 10.4-.2 1-.6 9.1-1 18-.3 8.8-.8 16.3-1 16.5-.2.2-.4-6.3-.5-14.5 0-13.6-.5-35-.9-44.9l-.2-4-2.5 5.5c-8.4 18.2-13.6 40.2-14.9 63-.9 15.9-1 16-1.8 15.9-.5 0-1.3.5-1.7 1.3-1.1 1.7-1.2 1.3-1-14.2.3-24.4 2.3-36.2 8.1-48.5 1.6-3.3 2.8-6.1 2.6-6.2-1.4-1.4-11.3 18-15.4 30.2-2.7 7.7-8.1 31.2-8.5 36.7-.1 1-.5 1.8-1 1.8s-.6-1.5-.3-3.3c.3-1.7.8-5.2 1.1-7.7.3-2.5.8-5.5 1.1-6.8 1.7-8.3-6.9 6.8-9.6 16.7-.6 2.3-1.5 4.1-2 4.1-.6 0-1 .5-1 1.1 0 .5.4.7 1 .4.6-.3.7.1.3 1-.4 1.2-.8 1.3-1.3.5s-1-.9-1.4-.2c-1 1.7-4.5.2-4-1.6.4-1.2.2-1.1-.7.3-1.2 1.9-1.2 1.9-2.1 0-.5-1.4-.6-1-.2 1.2.3 1.7 0 3.4-.6 3.8-.5.3-.7 1.2-.3 1.8.4.7 0 .6-1-.2-1.8-1.5-2.3-.3-.7 1.7.7.9.7.9-.2.2-1.8-1.5-3.2-1.2-1.9.4.8 1 .9 1.6.1 2.1-.6.4-1 .3-.9-.2.3-2-.2-2.5-1.5-1.4-1.1 1-1.4.9-1.2-.1.1-.7.4-1.3.8-1.3.3 0 1.4-.8 2.4-1.7 1.1-.9 2.2-1.6 2.6-1.5.3.1 1-.1 1.4-.6.4-.4 0-.7-.9-.7-2.3 0-3.2.4-3 1.1.1.4-.7.9-1.8 1.2-1.4.4-1.9.2-1.5-.8.5-1.4-1.8-1.5-3.1 0-.4.4-.2.5.6 0 .9-.5 1.2-.3.9.6-.6 1.4-.9 1.5-4.3.4-1.6-.4-1.5-.3.3.6 1.2.7 2.2 1.7 2.2 2.2 0 .6-.3.7-.7.4-.3-.4-1.3-.1-2.1.6-1.3 1-1.5.9-.9-.8.7-1.9.6-1.9-1.1.1-.9 1.1-2.4 1.9-3.2 1.6-.9-.2-.6.2.5 1.2 1.7 1.3 1.8 1.5.3 1.6-.9 0-2-.5-2.3-1-.3-.6-1.2-1-1.8-1-.8 0-.8.3-.2.8 1.4 1 1.7 3.2.5 3.2-.6 0-1-.5-1-1 0-.6-.5-1-1.1-1-.8 0-.9.4 0 1.3 1.2 1.6.5 2.7-1.8 2.7-1.4 0-1.4-.2-.1-1.1 1.2-.9 1.2-1-.3-.5-1 .3-2.1.6-2.5.6-.3 0 .3.6 1.4 1.4 1.3 1 2.3 1.1 3.1.4.9-.7 1.3-.7 1.3.1 0 .6-.4 1.1-1 1.1-.5 0-.7.8-.3 1.7.5 1.6.4 1.6-.8.2-.8-.8-2.6-2-4.1-2.7-2.4-1-2.6-.9-2.1.6.3.9.3 1.4-.2 1-.4-.4-1.4-.3-2.2.3-1.3 1.1-1.8.1-1.4-2.4.1-.5-.3-.6-.9-.2-.7.4-.7 1.2 0 2.5 1.3 2.5-1.9 4.6-4 2.7-.8-.7-1-.8-.7-.1.7 1.3-2.6 4.7-3.6 3.8-.4-.4.1-1.2.9-1.9 1.5-1.1 1.5-1.2 0-1.2s-1.8.5-1.5 2.3c0 .4-.5 1-1.1 1.4-.9.5-.9.9-.1 1.4.6.4 1.1.3 1.1-.3 0-.5 1.1-.8 2.5-.5 2 .3 2.3.1 1.9-1.3-.4-1.4-.3-1.5.4-.5.7 1.1 1 1.1 1.6-.3.3-.9 1-1.4 1.5-1.1.5.4 1.1.1 1.3-.6.3-.9.6-.9 1.2 0 .4.7.2 1.2-.4 1.2-.6 0-.8.5-.4 1.2.5.8 0 .7-1.1-.2-1.7-1.4-1.7-1.3-1.1 1 .6 1.9.5 2.1-.3 1-.9-1.3-1.5-.8-1.3 1.1 0 .3-1.4.5-3.1.5-1.9-.1-3.1.4-3 1.1.1.6-.4 1.4-1.3 1.7-1.2.4-1.2.2-.4-1.4.6-1.2.7-2.1 0-2.5-.5-.3-.7-1.2-.4-1.9.3-.8.1-1.7-.5-2.1-.7-.4-.8.1-.4 1.2.6 1.5.4 1.6-.9.6-.8-.7-1.9-.9-2.3-.5-.5.4-.5-.1-.2-1.1.4-1 .3-1.6-.2-1.2-.5.3-1.2-.1-1.5-.7-.3-.7-.4-.4-.1.8.3 1.2 0 2.1-.7 2.2-.7 0-2.2.2-3.3.5-1.1.2-1.4.2-.7 0 .7-.3 1-.8.7-1.3-.3-.5-1.2-.7-1.9-.4-.7.3-1.6-.2-1.9-1-.4-1-1.3-1.3-2.4-1-1.7.5-1.7.5 0-.6 1.3-.8 1.5-1.6.7-2.9-.5-1-.6-2.2-.2-2.6.4-.4-.1-.5-1-.3-.9.1-1.7-.2-1.7-.7 0-.6.8-.8 1.7-.7 1.3.3 1.2-.2-.7-2.1-2.1-2.4-2.2-5.5 0-4.2.5.4.9-.1.9-1 0-1-.5-1.3-1.2-.9-.9.5-.9.2.1-.9 1.5-1.8 2.6-2.3 1.6-.7-.3.6.1.7.9.4.9-.3 1.6-1 1.6-1.6 0-.5-.5-.6-1-.3-.6.3-1-.3-1-1.4 0-2.3 1.5-2.8 2.3-.9.4 1 .6 1 .6 0 .1-.7.5-1.1 1-.7.5.3 1.2.1 1.6-.4.3-.6-.4-.8-1.6-.6-1.3.3-2.9-.5-4.4-2-1.2-1.4-2.9-2.5-3.6-2.5-1-.1-.8-.4.4-1.1.9-.6 1.5-1.4 1.2-1.9-.3-.4.2-1.1 1-1.4 1.3-.5 1.4-.2.4 1.6-.9 1.7-.8 2.4.5 3.3.8.7 1.4 1.4 1.1 1.7-.3.2.2.5 1 .5s1.3-.3 1-.5c-.3-.3 0-1.1.6-1.8.7-.9.5-1.4-1-1.9-1.2-.3-2.1-1.1-2.1-1.6 0-.6.4-.7 1-.4.6.3.7-.1.4-1-.4-1-.1-1.4.7-1.2.8.2 1.1.2.7 0-1.6-.9-.7-2.2.9-1.6 1.2.3 1 0-.5-1.1-2.1-1.7-2.2-3.6-.1-3.6.6 0 .7.4.4 1-.3.5-.2 1 .3 1 .6 0 1.2-.6 1.5-1.4.4-.9-.3-1.3-2.1-1.2-1.4.1-2.7-.5-3-1.3-.3-.8 0-1.1.7-.7.6.4 1.1.3 1.1-.2s-1.2-1.4-2.8-2.1c-2.3-1-2.5-.9-1 .2 1 .8 1.5 1.7 1.1 2-.3.4-1.3.1-2.1-.6-1-.8-1.3-.8-.9-.1.6 1-1.3 2.5-3.5 2.8-.3.1-.9.4-1.3.8s-1.3.4-2 .2c-.7-.3-1.6 0-2.1.7-.4.7-.3 1 .3.6s2.3-.1 3.8.7c1.5.8 2.2 1.7 1.6 2.1-.6.3-1.1.3-1.2-.2 0-.4-.4.2-.9 1.4-.5 1.3-1.5 2.3-2.2 2.3-.9 0-.9-.3 0-1.2.7-.7 1.2-1.9 1.1-2.7 0-1-.4-.7-.9.6-.5 1.3-1.5 2.3-2.2 2.3-.6 0-.4.6.7 1.3 1.4 1.1 1.5 1.6.5 2.2-.8.5-1.1.4-.7-.2.3-.5 0-1-.7-1-.8 0-1.2.7-.8 1.5.3.9.1 1.3-.5.9-.5-.3-2 .1-3.2.9-1.6 1.2-2 2.1-1.5 3.7.6 2 .5 2.1-1.1.7-1.7-1.4-1.7-1.3.1 1.5 1 1.6 1.4 2.6.7 2.2-.8-.5-1.1 0-1 1.3.1 1.1.7 1.8 1.3 1.6 1.6-.6 1.1 2.1-.6 3.7-1.2 1-1.2.9-.2-.4 1.1-1.4.7-1.6-2.8-1.5-3.1.1-3.7.3-2.5 1.2 1.2.9 1.2 1.4-.3 3.5-2.1 3-2.7 6.3-1 5.3.9-.5.9-.2-.1.9-1.5 1.9-2.6 2.3-1.5.6.4-.7.1-1-.7-.7-.8.3-1.3 1.1-1.1 1.7.1.7-.2.9-.8.6-.8-.5-.6-1.3.4-2.4.9-1 1.3-2.1.9-2.6-.5-.4-.2-.5.6 0 .9.5 1.2.4.7-.3-.3-.6-.2-1.3.4-1.7.6-.4.7-1.1.4-1.7-.4-.7-.2-.8.4-.4.7.4 1.2.2 1.2-.3 0-.6-1-.9-2.2-.7-1.3.3-2.6.5-2.9.5-.3.1-.6.8-.6 1.7 0 1.5.1 1.5 1.2 0 .7-.8 1.5-1.3 1.9-.9.3.3-.1 1.5-1.1 2.5-.9 1-1.3 1.8-.9 1.8s.1.7-.8 1.5c-1.9 1.9-.9 4.8 1.4 4.2.9-.2 1.7.1 1.7.7 0 1.3-4.3 1.4-5.4.1-.5-.4-.2-.5.6 0 1 .5 1.2.4.7-.3-1-1.6-4.7.4-4 2.1.2.7-.4 2.2-1.6 3.2-1.1 1-2 1.3-2 .7 0-.6.4-1.4 1-1.7 1.4-.8 1.3-2.5-.2-2.5-.6 0-.8.3-.5.7.4.3.2 1.2-.4 1.9-1.2 1.5-.3 3.7 1.2 2.9.5-.4.9-.2.9.3 0 1.7-1.3 2.2-2.9.9-1.4-1-1.4-1-.3.4.7.9.9 2.5.5 3.4-.5 1.4-.3 1.6.7 1 .8-.5 1.1-.4.6.3-.3.5-.3 1.2.1 1.5.5.2.3.2-.4.1-.7-.2-1.5.1-1.8.6-.4.6-.1 1 .6 1s1 .2.7.5c-.3.3-1.3.2-2.2-.1-1.3-.5-1.4-.9-.5-1.4.7-.5.2-.7-1.3-.7-1.3.1-2.5.7-2.5 1.4s.4 1 .9.7c1.1-.7 3.8 1.4 3.8 2.9 0 .6-.7.2-1.6-.9-1.2-1.5-1.5-1.6-1-.2.6 2.1-1.9 4.4-3 2.7-.5-.8-.3-.9.6-.4.9.6 1.1.4.5-.5-.5-.9-.4-1.1.3-.6.7.4 1.2.5 1.2.2s-.9-1-2-1.6c-1.6-.8-1.8-.8-1.4.4.3.8-.5 2.1-1.8 3-1.2.9-1.8 1.6-1.2 1.6.5 0 1.5-.5 2.2-1.2.7-.7 1.2-.8 1.2-.2 0 2.2-2.3 3.3-4.4 2.3-1.6-.8-1.6-.6.4 1 2.4 2 3.6 2.5 5.3 2.2.5-.1.6.3.2.8-.3.6-1.3.7-2.1.4-1.4-.5-1.5-.3-.4 1.8 1.3 2.4 1.3 2.4-.7.4-1.1-1.1-1.6-2.3-1.1-2.6.5-.3.3-.9-.5-1.2-1.5-.6-1.6.6-.5 3.8.1.5-.1 1.1-.7 1.2-.5.2-1-.2-1-.9 0-.6-.6-1.3-1.4-1.6-1-.3-1.2 0-.8 1.1.3.9-.1 2.1-.9 2.7-.8.7-1.4 2-1.4 2.9 0 1.4-.2 1.4-1.1.1-.9-1.3-1-1.2-.5.2.3 1-.2 2.2-1.2 2.8-1.2.8-1.4 1.3-.4 1.6 1.7.8.5 2.4-1.3 1.8-1.2-.5-1.4.1-1.1 2.5.4 3.3-1 5.3-1.6 2.4-.3-1.5-.5-1.5-1 .3-.4 1.7-.2 2.1 1.1 1.9.9-.2 1.9-.4 2.3-.4.4-.1.5-1.5.3-3.2-.2-1.7-.1-2.8.2-2.5.3.3 1.3.1 2-.6 1.1-.9 1.7-.9 2.4.3.5.8.9 1.8.9 2.4-.1.5-.5.2-1.1-.8-.8-1.4-1.4-1.6-2.5-.6-.8.6-1.4 1.6-1.4 2.1 0 .6.7.5 1.5-.2 1.3-1.1 1.2-.7-.2 1.8-1 1.7-2 2.9-2.4 2.6-.4-.2-.9.3-1.3 1.1-.3.8-1.1 1.5-1.8 1.5-1 0-1-.2 0-.9 1.1-.6.9-1-.7-1.4-1.8-.4-1.9-.2-1 1.4.7 1.5.6 2.1-.6 2.5-.8.3-1.5 1.1-1.5 1.6 0 .7.5.6 1.3-.1.8-.6 1.8-.7 2.2-.3.5.4.5.1 0-.7-.5-.9-.4-1.2.3-.7.6.3 1.3.2 1.7-.4.3-.5 1.1-1 1.8-1 .6 0 .3.6-.8 1.3-1.1.9-1.5 1.9-1 2.6.6 1 .3 1.1-1.3.2-1.5-.8-2.3-.8-2.8 0-.5.9-1.1.6-2.1-.6-.7-1.1-1.3-1.4-1.3-.8 0 .7.5 1.5 1 1.8.8.5.7 1.1-.1 2.1-.6.7-1.5 1.1-2 .8-.5-.3-.9 0-.9.5 0 1.6 1.4 1.3 4-.9 1.7-1.5 2.7-1.7 4.1-.9 1.1.5 1.9 1.2 1.9 1.5 0 .2-.9 0-1.9-.6-1.2-.6-2.2-.6-2.5-.1-.4.5-.3 1.1.1 1.4.5.2.3.3-.2.1-.6-.1-1.9.4-3 1.2-1.3 1-2.2 1.1-3.1.3-1.7-1.4-1.3 1.7.5 3.4.7.6 1.1.7.9.2-.2-.6 0-1.1.5-1.3 1.6-.5 1.9-.1.7 1.3-1.1 1.4-1.5 1.4-3.6 0-1.3-.9-2.4-1.1-2.4-.6 0 .5.7 1.1 1.5 1.5.8.3 1.5 1 1.5 1.6 0 .6-.4.8-1 .5-.5-.3-1 .1-1 .9 0 1 .6 1.3 1.6.9 1.2-.4 1.5-.2 1.2.8-.3.8-1.3 1.4-2.4 1.4-1 .1-3 .7-4.4 1.5-1.4.7-2.7 1.2-2.8 1.1-.2-.2-.6 0-.9.3-.3.3.7.3 2.2 0 2.6-.5 2.7-.3 1.4 1.2-.8 1-1.4 2.8-1.4 4.2 0 1.4-.6 2.7-1.2 2.9-.7.3-1.3 0-1.3-.7 0-.6.4-.8 1-.5.6.3.7-.1.4-.9-1-2.7-2.3-1.7-1.9 1.4.2 1.7 0 2.8-.5 2.5-1.4-.8-2.4 1.5-1.1 2.8.8.8.6 1.6-.6 2.9-2.2 2.4-2.6 4.8-.7 4.1 1-.4 1.3 0 .8 1.3-.3 1.1-.2 1.5.3.9 1.1-1.3 4.7-1.9 3.9-.7-.3.6.5.5 1.8-.1 1.3-.7 2.3-1.4 2.1-1.7-.2-.3 0-1.2.6-2 .8-1.4 1.1-.7.8 1.7 0 .3.6 1 1.5 1.5.8.5 1.4 1.4 1.2 2.1-.1.6-.1.9.1.5.3-.4.4-1 .3-1.4-.3-1.4 2.5-2.2 4.3-1.2 1 .5 2.1.7 2.5.4.3-.3 0-.6-.7-.6s-1-.4-.6-.9c1-1.8-1.6-2.3-3.9-.7-2.2 1.4-2.4 1.4-2.2-.1.2-.9 1.3-1.8 2.6-2 1.3-.2 2.8-.9 3.3-1.6.6-.8.7-.6.3.7-.5 1.4-.2 1.7.9 1.2.9-.3 1.4-.2 1.2.2-.3.4-.1 1.6.4 2.7.7 1.8.8 1.8.8.1.1-1.1.6-1.6 1.5-1.3.7.3 2.4-.2 3.7-1.1 3-2.1 5.2-2.4 4.6-.8-.3.7 0 1.3.7 1.3 1.6 0 1.6-2.5 0-3.1-1.3-.5-1.3-3.7.1-3.5.4 0 1.2-.5 1.7-1.3.7-1 .8-.9.4.4-.6 2 .2 2.2 2.4.8 1.2-.8 1.2-1 .1-1-.8 0-1.1-.3-.8-.6.4-.4 1.3-.2 2.1.5 1.1.9 1.5.9 1.8 0 .2-.7 1-.9 1.6-.5 2.1 1.3 1.3 2.7-1.4 2.2-2.1-.4-2.4-.3-1.4.9.9 1.1 1.7 1.2 3.1.4 1-.5 1.9-1.3 1.9-1.8s1.1-.9 2.5-.9c1.3.1 2.2.4 2 .9-.3.4-.1 1.1.5 1.4.6.4 1 .3.9-.2-.3-2 .2-3.4 1.1-2.8.5.3 1.9-.4 3-1.5s2.6-1.8 3.2-1.4c.7.5.9.2.6-.8-.5-1.3-.3-1.4 1.7-.4 2 .9 2.1 1.2.8 1.7-1.4.5-1.3.7.5 1.1 1.2.3 2 .1 1.9-.4-.1-.5.9-1.4 2.2-1.9 1.9-.7 2.2-.6 1.7.6-.3.8 0 1.4.7 1.2.7-.1 1.1.5.9 1.3-.2.8 0 1.1.4.7 1.1-1.1 1.4-3.8.3-3.1-.5.3-.9.1-.9-.4 0-1.5 1.3-2.2 2.4-1.2.7.5 1.8.5 2.6 0 1.3-.8 1.3-1.1.1-2.2-.8-.7-1.1-.8-.8-.3.3.7-.4 1.1-1.8 1.1-1.7 0-2.1-.3-1.5-1.1.6-.7.7-1.4.4-1.8-.3-.3.1-.4 1-.3.8.1 1.9.5 2.2.9 1.5 1.5 2.6.6 1.3-1.1-1.3-1.5-1.2-1.6.3-.4 1.7 1.4 3.5.1 2.3-1.7-.3-.5-.2-1.2.3-1.5 1.4-.8 1 2.8-.4 4.5-1.2 1.3-1.2 1.8.1 3.5.8 1 1.5 1.4 1.5.7 0-.6-.5-1.5-1.1-1.8-.6-.5-.4-1.2.8-2 2.3-1.7 5.5-.2 4.6 2.3-.5 1.4-.2 1.3 1-.3 1.4-1.6 1.8-1.7 2.6-.6.7 1 1.3 1.1 2.7.1 1.6-.9 1.6-1.1.2-.6-2 .6-3.5-1-1.6-1.6.8-.3.1-1.1-1.6-2-2.3-1.2-2.6-1.6-1.2-2.1.9-.4 1.5-.3 1.2.2-.6.9 2.2 2.6 3.7 2.2.5-.1.7.2.4.6-.2.5.5 1.6 1.6 2.6 1.9 1.9 1.9 1.8 1.2-.2-.4-1.2-.2-2.1.4-2.1.6 0 1.1.4 1.1 1 0 .5.4 1 1 1 1.4 0 5.2-3.9 4.6-4.8-.3-.4.4-.8 1.4-.9 1.1-.1 2.2.3 2.5.8.4.5 1.1.7 1.6.3.6-.3.3-1.1-.6-1.8-1.5-1-1.4-1.2.4-1.2 1.1 0 1.8.4 1.5.7-.2.4 0 1 .6 1.4.5.3 1 .1 1-.5s.5-.8 1.1-.4c.8.4.7.9-.2 1.5-.7.4-1.7.5-2.3.2-.5-.3-.6-.2-.3.3.3.6-.7 1-2.3.9-1.5 0-2.6-.4-2.3-.9.4-.5.1-.6-.5-.2-2.3 1.4-1.2 2.4 2.5 2.3 2.1-.1 4.4-.7 5.1-1.4.7-.7 1.9-1.3 2.5-1.3.7 0 .3.7-.7 1.5-1.1.8-1.5 1.5-.9 1.5.7 0 1.5-.5 1.8-1 .3-.6 1.1-1 1.7-1 .7 0 .6.5-.1 1.4-.9 1.1-.9 1.6.1 2.2.7.4 1 .4.6-.1-.4-.4-.3-1.4.3-2.1.8-1 1.7-1.1 3.3-.3 2 1 2 .9.2-.5-1-.9-2.3-1.3-2.9-.9-.6.3-.7.1-.4-.4.4-.6-.1-1-1-.9-.9 0-1.7-.5-1.9-1.2-.1-.7 0-.8.3-.2.2.5.9 1 1.4 1 .6 0 .7-.4.4-1-.3-.6-.2-1 .3-1 .6 0 1.2.7 1.6 1.5.3.8 1 1.5 1.6 1.5.6 0 .8-.4.5-1-.3-.6.1-.7.9-.4.9.3 1.4.9 1.2 1.3-.3.4 0 1.3.6 2.1.8 1.3.9 1.2.5-.2-.3-.9.1-1.9.9-2.2 1.2-.5 1.4-.1.9 1.7-.5 1.7-.4 1.9.4.7.9-1.3 1.3-1.3 3.3-.1 2 1.3 2.2 1.2 1.1-.1-1.1-1.2-.8-1.5 1.7-1.5 2.9 0 3 .1 1.3 2.1-1 1.2-1.1 1.6-.4.9 1.1-.9 2-.8 4 .4l2.6 1.5-2.5-2.1c-1.8-1.5-2.1-2.1-1-2.1.9 0 2.2.6 2.8 1.2 1 1 1.7 1 3.3 0 1.6-1 2.4-1.1 3.5-.1.8.6 1.7.9 2.1.5.3-.3.1-.6-.5-.6s-.9-.7-.6-1.5c.4-.8 1-1.2 1.5-.9.5.3.9 0 .9-.5 0-.6-.5-1.1-1.1-1.1-.5 0-.7-.4-.4-1 .4-.6-.1-.7-1.1-.3-1.5.6-1.5.4.1-2 .9-1.5 2.2-2.4 2.8-2 .6.3.7.1.3-.5-1.1-1.8-2.2-1.4-3.4 1-.6 1.3-1.1 1.7-1.1 1-.1-1.7-1.8-1.5-1.8.3 0 .8.5 1.1 1 .8.6-.3.7-.1.3.6-.4.6-1.1.9-1.6.6-.5-.3-1.3.3-1.9 1.2-.6 1-1.1 1.4-1.1 1 0-.4-.9-.3-2.1.3-1.4.8-2.4.8-3.3.1-.9-.7-1.6-.7-2.5.2-1 .9-1.1.8-.6-.6.8-1.9 1.7-2.1 3.1-.7.7.7 1.9.6 3.7-.2 2.9-1.4 3.6-2.8 1.2-2.8-.8 0-1.5-.5-1.5-1v-1.8c0-.4.6-.7 1.4-.7.7 0 2-.6 2.9-1.3 1.3-1.1 1.7-1 2.6.5.6 1 1.1 1.3 1.1.6 0-.6-.5-1.5-1-1.8-.6-.4-.8-1.1-.5-1.6.4-.5.2-.9-.3-.9-.6 0-1.2.7-1.6 1.5-.7 1.9-2.3 1.9-2.3 0 0-.8.5-1.5 1.1-1.5.6 0-.3-.9-2.1-1.9-1.7-1.1-3.4-2.9-3.8-4-.3-1.2-1.1-2.1-1.7-2.1-.7 0-.6.5.2 1.5.6.8.8 2 .4 2.6-.5.8-.3.9.6.4.9-.6 1.1-.4.5.5-.6.9-.4 1.1.4.5 1-.6 1.1-.3.1 1.4-.9 1.8-3 2.1-3 .5 0-.3.5-.2 1 .1.6.3 1 .1 1-.4 0-.6-.5-1.1-1.1-1.1-.6 0-.8-.9-.4-2.1.6-1.8.5-1.9-1.3-.8-1.2.7-1.8 1.7-1.5 2.3.4.5.1.6-.7.1-1-.6-.9-1.1.5-2.2 1.7-1.2 1.3-1.8-.9-1.4-.5.1-.6-.5-.3-1.4.4-.8.1-1.5-.6-1.5-.8 0-.6-.4.3-1 1.4-.9.7-1.5-1.4-1.1-.5.1-.4-.5.4-1.3 1-1.3 1-1.9-.1-3.3-1.2-1.4-1.2-1.6 0-.9.9.6 1.2.5.9-.5-.3-.8-1.2-1.3-2.2-1.1-.9.2-1.6-.2-1.6-.8 0-.5.5-.9 1.2-.7.7.1 1.2-.5 1.3-1.3 0-.9.8-1.4 1.8-1.2 1 .2 2.5-.2 3.2-.8.8-.7 1.9-.9 2.4-.6.5.4 1.3.1 1.7-.6.4-.7.4-1-.1-.6-.4.4-1.4 0-2.2-1-.8-.9-1.1-1.1-.8-.4.6 1.1.3 1.2-1.4.3-2.5-1.4-2.8-2.3-.4-1.4.9.4 1.4.2 1-.3-.3-.6-.1-1.6.5-2.4.8-1.2.9-1.2.4.2-.5 1.6 0 2 2 1.7.4 0 1.1.5 1.6 1.3.8 1 .9.9.4-.4-.6-2 1-3.5 1.7-1.6.2.7.7 1 1.1.7.3-.3-.4-1.4-1.6-2.5-1.2-1-1.8-1.3-1.3-.5.6 1 .4 1.2-.5.6-.8-.5-1.1-.4-.6.3.3.6.1 1.4-.6 1.8-.7.4-1 .4-.6-.1.4-.4.3-1.6-.3-2.6-.7-1.5-.6-1.7.6-1.3.8.4 1.5.1 1.5-.4 0-.6.9-1.3 2-1.7 1.1-.3 1.9-1.2 1.7-1.8-.1-.7.4-1.1 1.1-.9.7.1 1.5-.5 1.9-1.4.5-1.3.7-1.3 1.4-.2.5.7.9 1.9.9 2.7 0 1-.3 1.1-1.4.2-.8-.7-1.7-.8-2-.3-.3.6.3 1.2 1.4 1.5 2.6.7 3.2-.4 2.5-4.5-.3-2.1-.2-2.8.4-1.9.6.9 1.1 1 1.5.2.9-1.4 2.6-1.4 2.6 0 0 .5-.5.7-1.2.3-.7-.4-.8-.3-.4.5.4.6.4 1-.1.9-.8-.3-1.3.5-1.3 2.3 0 .6.8.1 1.8-1.1 1.5-1.9 2.2-2.1 4-1.1 1.6.8 2.2.8 2.8-.1.4-.7.4-1-.1-.6-1 1-4.7-1-4-2.2.3-.5-.3-1.1-1.2-1.3-1.4-.4-1.3-.5.5-.6 1.2 0 2.2-.6 2.2-1.3 0-.6.3-.9.6-.6.3.4.1 1.5-.5 2.5-.8 1.5-.7 2 .4 2 .8 0 1.2-.4.9-.9-.3-.4 0-.8.6-.8s.9-.4.6-.9c-.9-1.5 1.8-3.1 3.4-2.1 1.3.9 1.3 1 0 1.1-.8.1-1.9.1-2.4 0s-.4.4.3 1.2c.9 1.2.9 1.6-.1 1.9-.8.3-.7.6.4 1.1 1.3.4 1.6.1 1.3-1.4-.2-1 0-1.9.6-1.9.5 0 .9.4.9 1 0 .5.5 1 1.2 1 .9 0 .9-.3.1-1.1-1.4-1.4-.6-3.9 1.4-3.9.8 0 1.1-.5.7-1.2-.4-.6-.3-.8.4-.4.6.3 1.3.2 1.7-.4.8-1.3 2.8-1.3 2.3.1-.2.6-.7 1-1.2.9-1-.2-2.6 1.9-2.6 3.4 0 .5 1.3-.5 2.9-2.2l2.9-3-.4 4.6c-.5 6.8-1.2 13.8-1.9 21.2l-.6 6.5 3.9-10c2.1-5.5 4.9-12.3 6.2-15 1.3-2.8 2.2-5.4 2.1-5.9-.1-.5.6-.6 1.5-.2 1.4.5 1.5.4.4-.9-.7-.9-.9-1.9-.5-2.3.4-.4 1-.1 1.2.6.3.6.9 1 1.4.6 1.4-.9 1 5.9-.6 10.7-1.9 5.2-7.1 25-7.9 29.9-3 17.9-3.4 24.6-3.1 44.5.2 11 .6 20.9.8 22 .3 1.1.6 3.3.7 5 .2 2.8.3 2.7 1.7-1.5.8-2.5 1.6-5.2 1.8-6 .2-.8 3.3-13.2 7-27.5 6.5-25 6.8-26.5 6.9-38.5.1-11.8-1.6-25.2-3.6-29.3-.5-1-1.1-3.6-1.4-5.7-.4-3.5-.2-3.9 1.3-3.4s1.6.4.3-.6-1.2-1.1.6-.7c1.3.3 2.1-.1 2.1-1s-.6-1.2-1.6-.8c-5 2.1-8.8 1.1-5.1-1.3 1.2-.7 2.1-.8 2.5-.2.3.6 1.1 1 1.7 1 .6 0 .5-.7-.3-1.7-1.3-1.5-1.2-1.5.7-.5 1.2.6 2.4.9 2.7.5.4-.3.5.4.2 1.5-.2 1.2 0 2.4.6 2.7.5.4.5 1.4-.2 2.7-.8 1.5-.8 1.9 0 1.4.7-.5 1.1.9 1.2 4.1 0 2.6.2 5.6.4 6.7.2 1 .6 5.8 1 10.5 1.8 24.9 5 41.2 10.5 54.5 3.5 8.5 4.9 10.1 5.1 5.9.1-1.5.2-4.4.4-6.3.6-8.4 1.5-42.1 1.7-60.3.1-10.8.5-19.7 1-19.7.4 0 .8-.5.8-1.1 0-.5-.5-.7-1.2-.3-.7.5-.8.3-.3-.5 1.4-2.4 2.3.5 4.9 15.9 2.7 15.6 3.1 17.5 6.1 28.5 1.9 7.3 9.5 22.9 13 27l2.6 3-.5-4c-1-7.7-1.5-13.1-2.1-22-.4-5-.8-10.1-1-11.5-.2-1.4-.7-6.8-1-12-.4-5.2-.8-10.7-1-12.2-.2-1.5 0-3 .4-3.2.4-.3 1.8 4.6 3.1 10.7 3.2 15.3 11.9 40.7 13.9 40.7.3 0 .7-1.2.7-2.8.1-1.5.4-7.2.7-12.7.3-5.5.7-15.6.8-22.5.2-14.2.6-16.2 2.4-12.8.6 1.3 1.8 2.2 2.5 2 .9-.2 1.1.1.4 1-1.7 2.2-.9 26.7 1.2 38.3 2.9 16.3 9.2 32.5 18.1 46.3 6.9 10.9 7.3 10.5 3.6-3.9-7-27.6-12.5-71.4-9.1-73.5.8-.5.9-.2.5.9-.3.9-.1 1.9.5 2.3.7.5.8.2.3-.7-.5-.8-.4-1 0-.6.5.4 1 1.3 1.1 2 1.6 10.5 2.3 12.5 11 30.8 4 8.6 8.3 18.2 9.4 21.3 1.2 3.1 2.4 5.6 2.6 5.6.3 0 .3-.8 0-1.8-.3-.9-.8-4.4-1.1-7.7-.3-3.3-.7-7-.9-8.2-.3-1.2-.7-5.2-1.1-9-.3-3.7-.8-8-.9-9.5-.2-1.6 0-2.8.5-2.8 1 0 4.9 4.1 4.9 5.2 0 .4.5.8 1 .8 1.6 0-3.1-5.9-5.1-6.5-1.2-.4-1.7-1.6-1.7-3.7.1-3 .1-3 1.4-.7.7 1.3 1 2.8.7 3.3-.3.5 0 .6.8.4.8-.3 1.3-1.1 1.1-1.8-.3-1.1 0-1.1 1.2 0 .9.7 1.6 1.8 1.5 2.4 0 .7-.2.6-.6-.2-.2-.6-.9-1-1.4-.7-.5.4-.2 1.7.7 3 .9 1.4 2.1 2.2 2.6 1.9.6-.4.6-.9-.2-1.4-.8-.5-.8-.9.3-1.3 1-.4 1.4 0 1.3 1.1-.2.9.4 2.3 1.3 3 .9.8 1.1 1.1.4.7-1.4-.7-5.3 1.5-5.3 2.9 0 .6.5.5 1.2-.2 1.5-1.5 5.4-1.6 6.3-.2.3.5.1 1-.5 1s-.8.5-.5 1c.4.7 1.3.6 2.7-.1 1.1-.6 1.8-.7 1.5-.1-.4.5 0 1.8.7 2.8 1.6 2.2.3 4.6-2 3.7-1-.4-1.1-1-.4-2.3 1.3-2.4 1.3-3-.1-3-.5 0-.7.4-.4 1 .3.5.2 1-.4 1-2 0-.3 3 3.6 6.5 3.7 3.3 4.1 3.9 3.3 6.6-.5 1.8-.5 2.7.1 2.4.5-.4.9-1.4.9-2.3 0-2.8 3.5-2.4 3.6.4.1 1.5-.2 2.2-1 1.7-.6-.3-.4.2.5 1.3.9 1 1.5 2.6 1.4 3.5-.2.9.4 1.6 1.1 1.6.8 0 1.4-.4 1.4-.9 0-.4-.5-.8-1.1-.8-.5 0-.7-.5-.4-1.1.5-.7 1.4-.4 2.6.7 2 1.8 2.7 4 .9 2.9-.5-.3-1-.1-1 .4 0 1.5 1.1 1.4 3-.4 1.6-1.5 2.1-1.2 5.8 2.5 2.7 2.8 4.2 3.7 4.6 2.8.3-.7.4-.4.3.7-.1 1.2.3 1.9 1.1 1.7.8-.1 1.2.1.9.5-.4.9 2.9 4.4 3.6 3.7.2-.2.4.3.4 1.1s-.3 1.2-.7 1c-.3-.2-1.2.6-1.9 1.8-1.1 1.8-1.1 2 0 .9.7-.6 2.2-1.2 3.3-1.1 2 0 2 .1-.1 1.1-1.2.6-2.1 1.9-2 2.9.1.9.5 1.5.9 1.3.5-.3.6-.9.3-1.4-.7-1.1.4-1.8 3.7-2.4 2.6-.4 3.6 1.9 1.2 2.8-.7.3-1.2 0-1-.7.1-.7.1-.9-.1-.4-.3.4-.9.5-1.4.2-.5-.4-.6.1-.3.9.3.9 1 1.6 1.5 1.6.4 0 .6.8.3 1.7-.5 1.5-.4 1.5.4.3.6-.8.8-1.9.5-2.5-.4-.5-.3-.7.2-.3.4.4 1.3.4 1.9-.2 1.8-1.4 3.7.2 2 1.8-1.1 1-1.4 1-1.4 0 0-.9-.3-.9-1 .2-1.2 1.8-1.4 4-.2 2.5.4-.6 1.2-1.1 1.7-1.2.6-.1 1.7-.3 2.5-.6.8-.2 1.2-.2.7 0-.4.3-.5.9-.1 1.4.3.5 1.3.5 2.5-.1 1.5-.9 2.1-.7 2.6.6.4 1 0 2-1 2.6-1.7.9-1.3 3.8.5 3.8.7 0 .6-.5-.1-1.3-.8-1-.7-1.4.3-1.4.9 0 1.3.8 1.1 2.1-.2 1.2-.6 5.7-.9 10.1-.4 4.4-1 10.5-1.6 13.5-.5 3-1.2 7.7-1.5 10.5-1.7 13.9-8.9 48.5-13.9 66.8-3.9 14.3-10.2 31.7-14.4 40.1-10.4 20.3-28.1 31.7-50.5 32.5l-6.8.2.8-3.8c2.2-11-.2-36.3-3.5-36.3-.4 0-2.7-1.9-5-4.1-7.1-7.1-11.6-18.8-7.7-20.3 3.2-1.2 1.4-5-2.8-6l-2.9-.7.7 24.3c.4 13.4.8 28.2.9 33.1.3 8.5.2 8.7-1.8 8.1-2.8-.9-11.3-6.5-15.3-10l-3.2-2.9 2.4-9.9c3.1-12.6 5.2-33.6 3.3-33.6-.4 0-.8.8-.8 1.8 0 2.2-4.6 11.6-6.4 13.1-.9.8-2.4-1-6.1-7.4-2.7-4.7-5.1-8.5-5.4-8.5-.3 0-.6 3.9-.6 8.6 0 4.7-.3 9-.6 9.6-.9 1.5-3.1-11.1-3.3-19.4-.1-4 .3-10 .9-13.3 1.2-6.5 6.2-20.5 7.4-20.5.3 0 3 3.6 5.9 7.9 2.9 4.4 6.1 8.6 7 9.3.8.7-.2-1.4-2.5-4.7-8.3-12.4-9.5-15-8.2-17.9 1.2-2.5 2.9-3.5 2.9-1.8 0 1.2 10.8 15.6 15.8 21.2l4.1 4.5-13.8-41c-7.5-22.6-14.5-42.7-15.5-44.8-3.6-7.3-3.3-4.5.6 5.6 6 15.8 10.8 35.2 12.2 49.7l.5 5.5-1.7-3.5c-1.7-3.6-2.5-4.4-7.7-8.2l-3-2.3 2.9 4.9 2.8 4.8-2 2-2 2.1-3.1-5.4c-3.7-6.5-4.1-5.8-.6 1.1 1.4 2.7 2.5 5.3 2.5 5.7-.1.4-3 3.9-6.5 7.8l-6.5 7v-3.9c0-5.2-.8-4.2-1.3 1.5-.2 3.5-1.7 6.5-6.9 14.4-8.7 13.2-13.8 22.7-19.3 36.5-6.9 17.2-10.6 33-11 47.5-.4 12.8 1 19.9 5.9 30 9.2 18.9 27.6 33.5 48.6 38.6 8.4 2 24.4 1.8 31-.4 26.3-8.8 51.7-32.7 71.9-67.5 5-8.6 18.2-35 23.6-47.2 2.1-4.7 4.9-11 6.2-14 5.7-12.6 19.5-47.9 26.2-67 4-11.3 7.5-21.2 7.8-22 .3-.8.7-1.8.8-2.3.2-.4.4-1 .5-1.5.1-.4.2-1 .1-1.5 0-.4.3-.7.9-.7.5 0 .7-.7.4-1.5-.4-.8-.1-1.5.4-1.5.6 0 .9.9.7 2-.2 1.1-.1 2 .4 2 .4 0 .7 1 .7 2.2.1 2.4 1.2 17.3 1.9 24.8.2 2.5.7 8.3 1 13 .3 4.7.8 10.5 1 13 .2 2.5.7 8.1 1 12.5.6 9.7 1.4 19.9 2 28 1.1 12.7 1.4 17.3 2 25.5.3 4.7.8 11 1 14 .7 7.4 1.4 17.1 2 25 1.3 18.5 1.7 23.8 2 27 .2 1.9.7 8.2 1 14 .4 5.8 1.1 10.9 1.5 11.4 1.7 1.7 12-3.6 17.8-9 3.1-2.9 5.6-5.2 5.7-5.1 1.1 2.4 6.3 9.2 9.6 12.5 5.3 5.2 17.9 11.6 26.9 13.7 10.1 2.3 26.6 1.4 36-1.9 20.4-7.2 37.5-23.6 60.9-58.4 2.3-3.4 4.4-6.2 4.6-6.2.2 0 3 4.2 6.1 9.2 7.6 12.4 15.5 24 16 23.5.2-.2-1.4-9.1-3.6-19.8-2.3-10.7-4.3-20.9-4.6-22.8-.3-1.9-1-4.6-1.6-6-.5-1.4-.9-2.7-.8-2.8 1.8-3.1 13-25.8 13.9-28.3 1-3 1.4-3.3 2.4-1.9 4.9 6.5 17 16.9 18.2 15.7.2-.2-.8-3.5-2.4-7.4-3.2-7.9-8.1-25.8-8.1-29.7 0-1.4 1.5-7.9 3.4-14.4s3.6-13.2 3.9-14.8c.3-1.7 1.2-6.4 2-10.5.9-4.1 1.8-9.3 2.2-11.5.3-2.2.8-4.8 1.1-5.8 1.2-3.9-1.2-.9-11.2 14.3-5.9 8.8-11.6 16.5-12.7 17.1-1.2.7-1.6 1.4-.9 1.8 1.1.7-5.1 11.7-7.7 13.8-.9.6-1.6 1.7-1.6 2.5 0 1.8-7.8 17.8-8.7 17.8-.4 0-.6-6.3-.5-13.9.1-7.7.1-13.9 0-13.8-.1.1-2.7 7.2-5.8 15.7-3.2 8.5-6.4 16.9-7.1 18.7-2.7 6.1-2.8 11.7-.4 19.3 2.1 6.6 2.2 10 .1 10-1 0-6.4-13.4-7.6-18.7-.3-1.8-1-3.5-1.5-3.8-1-.6 3.2 15.4 5.4 20.7 1.9 4.6 2 4.1-.1 6.4-3.1 3.5-8.7 7.3-14.5 9.8l-5.5 2.4.3-2.6c.2-1.5.6-6.1.9-10.2.3-4.1.8-9.5 1-12 .2-2.5.7-7.4 1-11 .3-3.6.8-8.1 1-10 .2-1.9.7-7.4 1-12.1l.7-8.5-4.7-.3c-4.2-.2-4.7 0-4 1.6 1.6 3.6.8 8-2.2 12.4-5.8 8.4-6.6 10.9-6.5 18.9.1 4.1.3 8.4.6 9.5.2 1.1.7 5.6 1.1 10 .4 4.4.9 9.2 1.1 10.8.7 4.5-.3 3.1-2.2-3.1-.9-3.1-2.5-7.5-3.5-9.7-.9-2.2-2.7-7-4-10.7-1.3-3.7-2.4-6.6-2.6-6.5-.1.2.5 4.3 1.3 9.2.8 5 1.8 10.6 2.1 12.5.2 1.9.8 5.2 1.3 7.3.6 2.9.5 4-.6 4.4-2.5.9-14-3.7-21.5-8.7-22.9-15.3-33.3-33.4-35.7-61.5-.9-10.9-.8-98.1.1-122.5.3-9.6.9-30.1 1.3-45.5.5-19.4 1.1-29.2 2-31.9 1.8-5 1.8-6.6-.1-6.6-2.6 0-1.9-6.5.8-8.7 3.3-2.6 4.6-5.3 5.2-11 .6-6.3-1.2-11.5-4.5-12.3-2.6-.6-2.6-.8-2-13l.2-4.5 1 3.5c1.4 4.9 5.4 9.9 7.5 9.5 1-.2 2.3-.4 3-.4 1.4-.1 3.1-4.9 2.7-7.6-3-22.1-3.6-24.7-5.3-24-5.2 2.2-7.1 2.3-7.9.7-.5-.9-.6-2.8-.1-4.2.4-1.4.8-1.8.8-1 .4 4.4 1.7 4.4 10.4-.2 14.7-7.9 28.6-19.2 39-32 3-3.7 4.8-7.7 8.8-20.4 2.7-8.8 5.1-16.6 5.3-17.4.4-1.7 5.5-18.7 6.2-21 .5-1.3.6-1.3 1.4 0 1 2 4.7 17.2 5.5 23 .4 2.4.8 4.7 1 5 .1.3.6 3.9 1 8s.9 7.8 1.2 8.2c.2.5 0 .8-.5.8s-1.2-2.7-1.6-5.9c-.7-6.3-5-22-6.9-25.8-1.1-1.9-1.9.8-6 19.5-5.5 25-5.7 28.8-2.2 34.8 3 5 6 6.4 8.1 3.7 4.2-5.5 8.5-19.1 7.6-24.1-.2-.6.1-1.2.6-1.2s.9.6.9 1.2c0 1.2 1.2 21.4 1.8 31.3.2 2.2.3 4.2.4 4.5.2.9 3.1-5.2 6.6-13.6 7.7-18.4 11.6-43.7 9.5-60.7-.6-4.6.1-6.9 1.5-4.7.7 1.2.8 33.2.1 40-.2 2.5-.7 10.3-1.1 17.5-.3 7.1-.8 15.7-1 19-.2 3.3-.7 11.6-1 18.5-1.2 22.9-1.4 27.4-2 36-.8 12.4-1.4 19.9-2 25-.3 2.5-.7 6.5-1 9-.7 6.5-1.5 11.8-2.5 18-.5 3-1.2 7.1-1.5 9-.5 3-1.3 7.3-2.9 15.5-.3 1.1-2.1 9.4-4.1 18.5-2 9.1-3.8 17.6-4.1 19-.5 2.4-.4 2.4 3.1-1 12.2-11.7 22.1-33.8 28.9-64.5 1.4-6.1 2.7-12.4 2.9-14 .3-1.7 1-6.2 1.7-10 .6-3.9 1.3-8.1 1.5-9.5.2-1.4.7-5.2 1-8.5.4-3.3.9-7.4 1.1-9 .8-6.6 1.8-27.7 1.7-39 0-13.4-1.1-39.7-1.7-41.7-.3-.7-.7-3.8-1-6.8-.8-8.8-3.3-25.2-4.6-31.5-.5-2.2-.7-4.1-.5-4.3 1.2-1.2 7 4.7 9.4 9.6 4.3 8.4 14.3 22 21.8 29.6 3.6 3.7 6.8 6.5 7 6.2 1.3-1.2-6-24.7-11.8-37.9l-3-6.8 11.3-20.2c16.9-30.2 20-36.8 20-41.5-.1-5.1-1.3-7.4-5.5-10.5-5.8-4.4-32.2-15.1-42.2-17.3-3.5-.7-27.1-1.3-30-.7zM513 101.5c-6.8 20.8-13.1 32.6-22.6 42-4.7 4.7-15.8 12.5-17.6 12.5-1.3 0-.7-30.4.7-36.5 2.6-11.4 9.7-20 20.9-25.5 7.2-3.6 20.6-7.2 21.9-6 .5.4-1.1 6.5-3.3 13.5zm-297.3 96.7c-.3.8-.6.5-.6-.6-.1-1.1.2-1.7.5-1.3.3.3.4 1.2.1 1.9zm-121.1.9c.5-.1.9.3.9.8s.3 1.2.7 1.6c.9.9-.1 3.5-1.4 3.5-.5 0-.6-.5-.3-1 .7-1.2.3-1.2-2-.4-1.3.6-1.4.9-.3 1.6.9.7.8.8-.6.4-1.1-.4-2.6 0-3.7 1-1.9 1.7-2.7 4-1 2.9.5-.3 1.2-.1 1.5.4.4.5-.2.8-1.1.7-2.6-.4-2.5-1.8.2-5 2.5-3 2.5-4.6-.1-4.6-.8 0-1.2-.5-.9-1 .4-.6 1-.8 1.4-.5.5.2 1.7-.2 2.7-.9 1.2-.9 2.1-1.1 2.5-.4.3.5 1 .9 1.5.9zM91 208c0 .5-.4 1-1 1-.5 0-1-.5-1-1 0-.6.5-1 1-1 .6 0 1 .4 1 1zm6 3.2c0 .6-.6.5-1.5-.2-.8-.7-1.5-1.4-1.5-1.6 0-.2.7-.1 1.5.2.8.4 1.5 1.1 1.5 1.6zm-16 1.3c0-1.2 3.7-1.7 4.4-.7.4.8-1.4 1.1-6.4 1.3-1.4 0-2 .3-1.3.5.7.3.9 1.2.6 2.1-.4 1-.2 1.4.5.9.6-.3 1.3-.3 1.6.2.2.4-.5.8-1.8.8-1.6 0-2.2-.6-2.1-2.3 0-2.8 2.6-4.8 3.7-3 .4.7.8.7.8.2zm155.7 0c0 .8-.4 1.2-.9.9-.4-.3-.8-.9-.8-1.5 0-.5.4-.9.8-.9.5 0 .9.7.9 1.5zm-143.9 2c-.3.3-.9-.2-1.2-1.2-.6-1.4-.5-1.5.5-.6.7.7 1 1.5.7 1.8zm-2.3-.5c.3.5.1 1-.4 1-.6 0-1.1-.5-1.1-1 0-.6.2-1 .4-1 .3 0 .8.4 1.1 1zm104.5-.6c0 .3-.4.8-1 1.1-.5.3-1 .1-1-.4 0-.6.5-1.1 1-1.1.6 0 1 .2 1 .4zM94.5 216c-.3.5-1.2 1-1.8 1-.7 0-.6-.4.3-1 1.9-1.2 2.3-1.2 1.5 0zm160.6 2.3c-1 .9-1.1.8-.5-.6.3-1 .9-1.5 1.2-1.2.3.3 0 1.1-.7 1.8zm-91.1 1.6c.3.2-.3.1-1.2-.2-1.6-.6-2.3.3-1.9 2.5 0 .5-.4.8-1 .8-.7 0-.8-.7-.4-1.8.4-.9.8-2.3.8-2.9 0-1.2 1.1-.7 3.7 1.6zm-71-.4c-.7.9-1.5 1.3-1.9 1-.3-.3.1-1 .9-1.5 2.1-1.4 2.4-1.2 1 .5zm-14 .5c0 .5-.4 1-1 1-.5 0-1-.5-1-1 0-.6.5-1 1-1 .6 0 1 .4 1 1zm70.3 4c-.5 1.9-2.3 3.9-2.3 2.5 0-.9 2-4.5 2.4-4.5.2 0 .2.9-.1 2zm-3.6 3.7c.1 2 0 2.3-.5 1-.7-1.6-.8-1.6-2.4 0-2.9 3.1-4.6 4.2-5.4 3.5-.4-.4-.4.2 0 1.2.6 1.6.4 1.7-1 .6-1.4-1.2-1.2-1.6 1.8-3.1 1.8-.9 3.3-2.3 3.3-3.1 0-.7.5-1.3 1.2-1.3.6 0 1.5-.3 1.9-.8 1-1 .9-1.1 1.1 2zm-72.7.7c0 .3-.4.8-1 1.1-.5.3-1 .1-1-.4 0-.6.5-1.1 1-1.1.6 0 1 .2 1 .4zm77.4 1.5c.3.5-.2 1.5-1.2 2.2-1.5 1.2-1.6 1.2-.5-.2.7-.9 1-1.9.6-2.2-.3-.4-.4-.7 0-.7.3 0 .8.4 1.1.9zm-78 2c-.9.9-3.4.9-3.4.1 0-.5.9-.8 2-.7 1 .1 1.7.3 1.4.6zm56.3 4.8c0 1-.6 2.3-1.3 3-1.8 1.9-2.9 1.6-1.3-.3 1.2-1.5 1.1-1.6-1.1-.9-2.2.7-2.3.6-1.1-.8.7-.9 1.7-1.5 2.1-1.2.5.3 1.1.1 1.5-.5.9-1.4 1.2-1.3 1.2.7zm2.3 3.3c0 .5-.5 1-1.1 1-.5 0-.7-.5-.4-1 .3-.6.8-1 1.1-1 .2 0 .4.4.4 1zm-69.7 1.2c.2.7-.1 2.2-.6 3.3-.6 1.1-1.2 2.6-1.3 3.3-.1.8-.6 1.7-1 2-.4.4-.5 0-.1-.9.3-.9.1-2.1-.5-2.7-.7-.7-.4-1.4 1-2.3 1.6-1 1.8-1.6 1-2.6-.7-.9-.7-1.3 0-1.3.6 0 1.2.6 1.5 1.2zm4.1.6c.3.5-.1.9-.9.9s-1.2-.4-.9-.9c.3-.4.7-.8.9-.8.2 0 .6.4.9.8zm43.8 2.6c.5.9.7 2 .4 2.3-.3.4-.6.1-.6-.6s-.5-.9-1.2-.5-.8.3-.4-.4.3-1.2-.3-1.2c-1.8 0-2.3 2-.7 2.6.9.3 1.4 1 1.1 1.4-.3.5-1.7-.2-3.1-1.5-1.4-1.3-2.3-2.8-2-3.3.9-1.5 5.7-.7 6.8 1.2zm-12.2-1c0 .3-.4.8-1 1.1-.5.3-1 .1-1-.4 0-.6.5-1.1 1-1.1.6 0 1 .2 1 .4zm214.2.3c-.6.2-.9 1-.6 1.5.4.7.2.8-.5.4-1.3-.9-.5-2.6 1.2-2.5.9 0 .8.2-.1.6zm-247.8 2.1c.3.5-.1.9-.9.9s-1.2-.4-.9-.9c.3-.4.7-.8.9-.8.2 0 .6.4.9.8zm37.6.2c0 .5-.2 1-.4 1-.3 0-.8-.5-1.1-1-.3-.6-.1-1 .4-1 .6 0 1.1.4 1.1 1zm16.5 1.9c-.9.8-3.6 1-3 .2.2-.4 1.1-.8 2-.8.8 0 1.3.3 1 .6zm52.6 2.4c-1 .9-1.1.8-.5-.6.3-1 .9-1.5 1.2-1.2.3.3 0 1.1-.7 1.8zm-110.7 1.5c.3.5-.1.9-.9.9s-1.2-.4-.9-.9c.3-.4.7-.8.9-.8.2 0 .6.4.9.8zm107 .1c.3.5-.1 1.1-.9 1.4-.9.4-1.2.1-.8-.9.6-1.6 1-1.7 1.7-.5zm72.2 1.6c.1.8-.2 1.5-.6 1.5-.5 0-.8-.9-.7-2 .1-2.1 1-1.8 1.3.5zM161 253c0 .5-.5 1-1.1 1-.5 0-.7-.5-.4-1 .3-.6.8-1 1.1-1 .2 0 .4.4.4 1zm101.5 2.9c.3.5.2 1.2-.3 1.5-.5.3-.9-.1-.9-.9 0-1.7.3-1.9 1.2-.6zm68.9 3.7c.3.8.2 1.2-.4.9-.6-.3-1-1-1-1.6 0-1.4.7-1.1 1.4.7zm-185.3 1.1c1.2 1.6 1.2 1.7-.2.6-.9-.7-2-.9-2.4-.5-.5.4-.5.1-.1-.6.9-1.6 1.1-1.5 2.7.5zm-93.5 1.8c-.3 2.3-1.2 2.6-1.3.5-.1-1.1.2-2 .7-2 .4 0 .7.7.6 1.5zm282.4-1.1c0 .3-.4.8-1 1.1-.5.3-1 .1-1-.4 0-.6.5-1.1 1-1.1.6 0 1 .2 1 .4zm-286.3 2.3c-.9.2-1.5.8-1.3 1.2.3.4-.1.8-.9.8-1.1 0-1.2-.4-.4-1.4.6-.7 1.9-1.2 2.8-1.2 1.3.1 1.3.2-.2.6zm92.3 1.8c0 .7-3 1.3-3.4.7-.3-.4.4-.9 1.5-.9 1-.1 1.9 0 1.9.2zm136-.1c0 .2-.7.7-1.6 1-.8.3-1.2.2-.9-.4.6-1 2.5-1.4 2.5-.6zm77.2 7.3c-.6.3-1 .8-.7 1.3.3.4-.4.6-1.6.3-2-.5-2-.6.3-1.8 1.3-.6 2.5-1 2.8-.7.3.3-.1.7-.8.9zm-312.9 2.9c-.2.7-1.1 1-1.9.7-1-.4-1.1-1-.3-2.5.8-1.6 1.3-1.8 1.9-.8.5.7.6 1.9.3 2.6zm4.1-1.8c.3.5-.1.9-.9.9s-1.2-.4-.9-.9c.3-.4.7-.8.9-.8.2 0 .6.4.9.8zm87.3-.1c-.4.3-.1 1.3.6 2.2 1.1 1.4 1 1.4-.5.2-1.6-1.2-1.6-3.1-.1-3.1.4 0 .3.3 0 .7zm4.3 2.7c0 .3-.4.8-1 1.1-.5.3-1 .1-1-.4 0-.6.5-1.1 1-1.1.6 0 1 .2 1 .4zm-97.7 1.3c.4.3-.2 1.3-1.4 2.1-2.4 1.7-3.7.9-1.9-1.3 1.4-1.6 2.3-1.9 3.3-.8zm4.1.1c.3.5-.1.9-.9.9s-1.2-.4-.9-.9c.3-.4.7-.8.9-.8.2 0 .6.4.9.8zm257 4.4c-.3.4-1.1.5-1.9.1-2.1-.7-1.9-1.2.4-1 1.1 0 1.8.5 1.5.9zm-169.6 5.3c-.3.3-.9-.2-1.2-1.2-.6-1.4-.5-1.5.5-.6.7.7 1 1.5.7 1.8zm-6 1c-.3.3-.9-.2-1.2-1.2-.6-1.4-.5-1.5.5-.6.7.7 1 1.5.7 1.8zm18.2 12c.5-.3.7.3.5 1.2-.1 1.1-.9 1.7-2 1.5-1-.2-1.4.1-1 .7.3.6.1 1.1-.4 1.1-1.6 0-1.3-2 .3-2.6.8-.3 1.4-1.1 1.2-1.7-.1-.7-.1-.9.1-.4.3.4.8.5 1.3.2zM27 304c0 .5-.4 1-1 1-.5 0-1-.5-1-1 0-.6.5-1 1-1 .6 0 1 .4 1 1zm-2.3 4.5c0 1.8-2.4 2.8-3.3 1.3-.4-.6-.3-.8.3-.5.6.4 1.3 0 1.7-.8.7-1.9 1.3-1.9 1.3 0zm94.3-.9c0 .8-1.9 1.3-2.4.6-.3-.5.1-.9.9-.9s1.5.2 1.5.3zm198 .4c-1.3.8-1.2 1 .3 1 .9 0 1.7-.4 1.7-.8 0-.5.7-.9 1.6-.9 1.2 0 1 .5-.7 1.8-1.3 1-1.9 1.9-1.3 1.9.7 0 1.4.7 1.8 1.5.8 2.1.4 1.9-3.4-2-3.3-3.5-3.4-3.5-.9-3.5 1.9 0 2.1.2.9 1zm-184.5 1.9c-.3.5-.1 1.2.5 1.6.6.4.8 1.1.5 1.6-1.1 1.7-2.2.9-2.2-1.6 0-1.4.4-2.5.9-2.5s.7.4.3.9zm8.5.1c0 .5-.4 1-1 1-.5 0-1-.5-1-1 0-.6.5-1 1-1 .6 0 1 .4 1 1zm-36.3 3.5c.1 1.9-.2 3.5-.8 3.5-1.9 0-2.4-.2-2.1-1.1.3-1.3-1.2-1.1-2.6.3-.9.9-1.2.9-1.2 0 0-.7.5-1.2 1.1-1.2.5 0 .7-.5.4-1-1-1.6 1.8-.7 3.3 1 1 1.3 1.1 1.1.8-1.2-.3-2.1 0-3.8.8-3.8.1 0 .2 1.6.3 3.5zm220.3.3c0 .1-.9-.2-2-.8-1.1-.6-2-1.5-2-2 0-.6.9-.2 2 .7 1.1 1 2 1.9 2 2.1zm-195.7-2.1c-.7.2-1.9.2-2.5 0-.7-.3-.2-.5 1.2-.5s1.9.2 1.3.5zm18.8.2c.7-1.1.9-1.1.9-.1 0 .7.4 1 1 .7.6-.3.7.1.4.9-.3.9-1 1.3-1.5 1-.6-.3-1.6 0-2.4.6-1.7 1.4-5 .5-4-1 .4-.6 1.1-.8 1.6-.5.5.4 1.2-.2 1.6-1.1.5-1.3.8-1.4 1.1-.5.4 1.1.6 1.1 1.3 0zM97 314c0 .5-.4 1-1 1-.5 0-1-.5-1-1 0-.6.5-1 1-1 .6 0 1 .4 1 1zm-78.3 2.4c0 .8-.7 1.2-1.4.9-.8-.3-1.3 0-1.1.8.2.8-.3 1.3-.9 1.1-.7-.1-1.3.3-1.3 1 0 .6-.3.8-.7.5-.3-.4.2-1.6 1.2-2.7s1.5-2 1.1-2c-.4 0-.5-.4-.1-1 .8-1.3 3.2-.2 3.2 1.4zm71.7 0c1.7.8 2.2 1.5 1.4 1.8-.7.3-2.1-.4-3-1.4-2.1-2.2-1.9-2.2 1.6-.4zm234.1-.4c-.3.5-.1 1 .4 1 .6 0 1.1-.5 1.1-1.2 0-.6.3-.9.6-.6.3.4-.1 1.9-.9 3.4-.9 1.7-1.7 2.3-2.1 1.5-.4-.6-.2-1.1.5-1.1.8 0 .9-.3 0-1.3-.6-.8-.8-1.7-.4-2 1-1 1.5-.8.8.3zm-251.3 3.5c1.6 2 1.6 2.1-.1 2.2-1.3.1-1.8-.5-1.8-2.3 0-1.4 0-2.4.1-2.2.1.2.9 1.2 1.8 2.3zM75 318c0 .5-.2 1-.4 1-.3 0-.8-.5-1.1-1-.3-.6-.1-1 .4-1 .6 0 1.1.4 1.1 1zm253.1 1.4c-.8 1-.9 1.6-.1 2.1.5.3 1 0 1.1-.7 0-.9.2-1 .5-.1.3.7 1.3.9 2.2.6 1.3-.4 1.2-.2-.3 1-1.8 1.4-2.2 1.4-3.7 0-1.7-1.5-1.4-4.3.4-4.3.6 0 .6.6-.1 1.4zm-309.8 1.1c-.3.9-.8 1.4-1 1.1-.3-.3-.2-.9.2-1.5.9-1.6 1.5-1.3.8.4zm49.1-.3c-.3.4-.1.8.5.8.5 0 1.1-.6 1.4-1.3.3-.6.4-.2.4 1-.1 1.7-.5 2-1.9 1.2-2.3-1.3-3-2.6-1.3-2.6.8 0 1.2.4.9.9zM15.5 322c-.4.6-.1 1.9.6 2.8 1.2 1.6 1.2 1.6-.5 0-1.6-1.4-1.5-3.8 0-3.8.3 0 .2.5-.1 1zm43.5 0c0 .5-.2 1-.4 1-.3 0-.8-.5-1.1-1-.3-.6-.1-1 .4-1 .6 0 1.1.4 1.1 1zm1.7 1c-.1 1.1-.4 2-.7 2.1-.3 0-1.5.2-2.7.5-1.3.2-2.3 0-2.3-.4 0-1.6 1.3-2.2 2.6-1.1.9.7 1.4.5 1.9-1 .8-2.7 1.4-2.7 1.2-.1zm275.9 1c0 1.2-.4 1.6-.9 1.1s-.6-1.4-.3-2c1-1.5 1.2-1.4 1.2.9zM47 324c0 .5-.5 1-1.1 1-.5 0-.7-.5-.4-1 .3-.6.8-1 1.1-1 .2 0 .4.4.4 1zm6.5 1.1c.2.8-.5 1.5-1.5 1.5s-1.6-.4-1.4-.8c.3-.4-.1-.8-.8-.8-.9 0-.9-.3.2-1 1.9-1.2 3.3-.8 3.5 1.1zm-39 1.9c-.3.5-1.2.7-2 .4-2-.8-1.3 2.6.8 3.8.9.5 1.7 1.4 1.7 1.9 0 .6-.7.3-1.6-.5-.8-.9-2-1.6-2.7-1.6-.6 0-.1.9 1.1 2.1 1.2 1.1 2 2.4 1.7 3-.9 1.3-2.7 0-1.9-1.4.3-.7-.1-.5-.8.4-1.1 1.4-1.7 1.5-3.1.4-1.6-1.1-1.5-1.3.3-3 1.5-1.4 1.7-2.1.9-3.2-.7-.7-.9-1.6-.5-2 .3-.3.6-.1.6.5 0 .7.5 1.2 1.1 1.2.5 0 .8-.4.4-.9-.3-.6.2-1.4 1.2-2 1.9-1 3.7-.5 2.8.9zm22.5-1c0 .5-.5 1-1.1 1-.5 0-.7-.5-.4-1 .3-.6.8-1 1.1-1 .2 0 .4.4.4 1zm-3.3 2.6c-.3.3-1.2.4-1.9.1-.8-.3-.5-.6.6-.6 1.1-.1 1.7.2 1.3.5zm3.7 2c.3.9.2 1.2-.5.9-.6-.4-1.6 0-2.3 1-.6.9-2.4 1.8-3.8 1.9-2.3.3-2.6 0-1.8-1.4.5-1 .6-2.1.2-2.5-.4-.4.6.1 2.3 1.1 2.7 1.8 2.9 1.8 2.2.1-.4-1.1-.3-1.6.3-1.2.6.3 1 .1 1-.4 0-1.7 1.7-1.3 2.4.5zm-17.4 1c0 .8-1.9 1.3-2.4.6-.3-.5.1-.9.9-.9s1.5.2 1.5.3zm338.9 14.8c-.3.3-1.1-.5-1.8-1.7-1.3-2.1-1.2-2.1.5-.5 1 1 1.6 2 1.3 2.2z"/><path d="M91.4 200.2c-.3.5-1.1.5-1.7.1-.8-.5-.8-.2 0 .9.7.8 1 1.8.6 2.2-.4.4 0 .4 1 0 .9-.3 1.7-1.1 1.7-1.6 0-.6.8-.4 1.8.3 1.5 1.2 1.6 1.2.5-.2-.7-.9-1.1-1.8-.8-2.1.3-.2-.2-.5-1-.5-.9 0-1.8.4-2.1.9zM103 244.2c0 .4.4.8.9.8.6 0 1.2-.4 1.5-.8.3-.5-.1-.9-.9-.9s-1.5.4-1.5.9zM8.6 332.9c-.4.5-.2 1.2.3 1.5.5.4 1.2.2 1.5-.3.4-.5.2-1.2-.3-1.5-.5-.4-1.2-.2-1.5.3zM228.9 64.7c-9.7 10.4-19.4 24.3-26.1 37.8-4.1 8.1-11.8 29.2-11.8 32.1 0 2 18-16.8 21.3-22.4 2-3.1 6.5-13.3 10.1-22.5 3.6-9.2 7.4-18.7 8.5-21 2.1-4.8 3.4-8.7 2.8-8.7-.2 0-2.4 2.1-4.8 4.7zM263.5 110.7c-.9 4.9-1.9 9.7-2.1 10.8-.2 1.1-.9 4.5-1.5 7.5-2.8 13.1-1.3 26.1 3.7 33.8l1.6 2.4 2.3-2.2c1.3-1.2 3.3-4.5 4.5-7.3 2-4.5 2.2-6.2 1.6-13.6-.3-4.6-1-10-1.6-12-.5-2-2.1-9-3.5-15.6-1.5-6.6-2.8-12.1-2.9-12.3-.2-.1-1.1 3.7-2.1 8.5zM214 120.2l.1 4.3 1.5-2.8c1.6-2.9 1.3-5.7-.6-5.7-.5 0-1 1.9-1 4.2zM592.2 118.7c-.6 1.1-.7 2.5-.3 3.2.5.7 1 4.9 1.2 9.4.6 14.8.4 82.9-.4 97.2-.4 7.7-.9 17.4-1.2 21.5-.9 16.9-1.6 27.7-2 32-.2 2.5-.7 9.2-1 15-.3 5.8-.8 12.5-1 15-.2 2.5-.7 8.8-1.1 14-.3 5.2-.7 11-.9 12.9l-.2 3.4 1.8-2.4c3.1-3.9 14.5-27.7 17.6-36.6 1.5-4.6 3.2-8.3 3.6-8.3.5 0 .5.5.2 1-.4.6-.8 4.8-1 9.5-.5 14.3 3.3 29.7 12.4 50.5l4.6 10.5.6-5c.7-5.6.4-54.9-.4-58-.3-1.1-.8-4.9-1.2-8.5-1.2-11.5-7-38.5-7.5-35.3-.2.7-.3 1.6-.4 2-.2.5-.8 3.6-1.6 7.1-1.9 9.1-2.3 6.9-.6-3.4 2.1-12.6 1.4-40.6-1.3-59.9-2.7-18.4-8.9-49.4-14.2-71.5-2.3-9.1-4.2-16.7-4.4-16.8-.2-.2-.8.5-1.3 1.5zm17.2 172.2c-.4 1.7-.9 3-1.1 2.7-.3-.2-.2-1.9.2-3.6.9-4.1 1.7-3.3.9.9zM188.9 150.2c-5 6.6-5.4 7-6 4.7-.4-1.3-.8-1.7-.8-.9-.1.8-2.1 7.8-4.6 15.5-4.4 13.8-5.2 17.6-3.7 17.4 1.2-.1 13.9-20 16.8-26.4 2.9-6.3 5.7-17.5 4.4-17.5-.5 0-3.2 3.2-6.1 7.2zM278.7 148.7c.3 2.1-.7 4.1-4 8.2-6.5 7.8-6.9 12.2-2 21.3 4.9 9.1 6.8 8.7 12.1-2.2 5.8-11.9 5.5-17.5-1.6-26.8-3-4-5-4.2-4.5-.5zM524.4 152c-.9 2.2-2.9 5.1-4.5 6.5l-2.9 2.4 4.6 11.8c2.6 6.5 5.1 12.2 5.5 12.7 1.3 1.5 4.6-2.1 6.5-7 2.4-6.2 1.3-14.7-2.7-23-1.8-3.6-3.6-6.7-4-7-.5-.3-1.6 1.3-2.5 3.6zM609.9 150.8c.9 2.9 1.6 10.3 2.6 27.2.3 3.6.7 8.5 1 11 .2 2.5.8 7.6 1.1 11.5 1.8 19 3 27.9 7.9 56.5 1.4 8.6 9.3 38 10.1 38 .5 0-.4-34.7-1.1-42.5-1.8-20.1-3.6-33-7.1-50.5-3.8-19-12.6-51.3-14.5-53.4-.5-.5-.5.5 0 2.2zM625.7 157.2c-.5 2.1-1 3.8-1.3 3.8-.3 0-1.6-1.2-2.9-2.8l-2.5-2.7 2.1 4.3c1.1 2.3 2.5 6.8 3.1 10 .8 4.2 2.1 6.8 5 10.1 2.1 2.4 3.8 5 3.8 5.7 0 2.8 1.9 1.3 2.6-2 1.1-5.9-.2-11.1-4.3-18.8-2.3-4-4.3-8.2-4.5-9.3-.3-1.4-.6-.9-1.1 1.7zM292.4 166.3c-3.4 5.3-7.4 16.3-7.4 20.5 0 5.3 2.6 8.5 6.9 8.4 5.7-.1 10.7-7 11.8-16.2.7-6.3-.7-9.8-5.5-13.2l-3.8-2.6-2 3.1zM544.2 167.2c-3.2 5.2-6 14.4-6.1 20.2-.1 2.3-.4 2.7-1.3 1.8-1.6-1.6-2.8-1.5-2.3 0 .2.7.6 5.6.9 10.8.5 8.5 1.6 24.3 2.1 31 .1 1.4.3 5.4.3 9 .1 4 .6 6 1.1 5.5 1.4-1.4 13-43.9 13.8-50.5 1.5-11.9.2-20.3-4.5-27.8l-2-3.3-2 3.3zM507.2 167.7c-2.1.8-4.2 6-4.2 10.2 0 6.3 3.7 14.9 7.2 17.1 6.8 4.1 13.5-4.5 7.6-9.9-1.7-1.7-2.2-3.4-2.4-8.8-.3-8.1-2.8-10.8-8.2-8.6zM559.6 189.3c-2.1 10-4.7 22-5.8 26.6-1 4.7-2.1 10.1-2.4 12-.3 2-.7 3.8-.9 4.1-.2.3-.6 2.6-.9 5-.4 2.5-.9 5.6-1.1 7-1.6 8.3-2.6 44.7-1.7 60.5l.4 7 3.4-8.7c1.9-4.8 5.2-15.6 7.3-24 4-15.4 4.7-19.1 5.7-28.3.3-2.8.7-5.3.9-5.6 1.7-2.6 2.5-42.3 1.1-55.9-1-10.6-1.8-17.5-2-17.7-.2-.2-2 7.9-4 18zM308.2 181.1c-.1 3.1-1.6 8.5-3.5 13.3-3.5 8.6-3.8 12.3-1 14.3 4.4 3.3 8.1-.1 12.4-11.2 3.6-9.3 4.2-13.6 2.2-16.5-1.4-2-6.9-5-9-5-.5 0-.9 2.3-1.1 5.1zM495 179.2c-1.4 1.1-3.7 2.5-5.2 3-1.6.6-2.9 1.7-2.9 2.6-.7 8.4 1.9 19.7 5.4 23.6 4.7 5.3 11.8 3 13.2-4.3.3-1.6-6.7-25.7-7.8-26.7-.1-.1-1.3.7-2.7 1.8zM101 188.1c0 .5.5.7 1 .4.6-.3 1-.8 1-1.1 0-.2-.4-.4-1-.4-.5 0-1 .5-1 1.1zM321.6 196.7c-.4 5.4-.9 11.7-1.2 14.1l-.6 4.2 4.8 2c2.6 1.2 5.1 1.7 5.5 1.3 1.7-1.8 4.1-12.3 4.6-20.3l.6-8.6-5.2-1.2c-8.1-1.9-7.8-2.3-8.5 8.5z"/><path d="M341.1 190.8c-1.4 2.6-5 17.7-5.7 23.8-.4 3.3-.3 5.4.5 5.8 2.5 1.6 1 2.8-2.8 2.2-3.2-.4-4.2-.1-6.1 1.9-1.9 2-2.1 3-1.5 6.2.7 3.8 2.8 8.4 5.4 11.5.8 1 1.1 1.8.7 1.8-.4 0 2.8 3.4 7 7.5 9.3 9 9.9 8.7 8.3-5.7-1.1-9.8-3.2-17.3-5.8-19.8-1.3-1.3-1-1.6 2.2-2.1 8.7-1.4 15.1-11.9 12.7-20.8-1.6-6-6-11.1-11.2-13-2.3-.8-3-.7-3.7.7zM95.3 191.7c0 .7.3 1.1.5.8.3-.3 1 .3 1.7 1.2.9 1.3 1.4 1.3 2 .3.6-.9.4-1.1-.5-.5-1 .6-1.2.3-.8-1.1.3-1.4 0-2-1.2-2-.9 0-1.7.6-1.7 1.3zM523.5 196.6c-4.1 3.4-5.4 5-4.9 6.3 3.9 9.2 4.3 15.7 1.8 30.9-1.5 9-1.5 23.5 0 25 2 1.9 9.9-17.4 12-29.3 1.6-8.7 1.4-22.7-.3-31.4-.6-2.9-1.1-5.5-1.1-5.7 0-1.3-2.5.2-7.5 4.2zM87 193.4c0 .2.7.7 1.6 1 .8.3 1.2.2.9-.4-.6-1-2.5-1.4-2.5-.6zM103.5 195.1c-.4.6-.5 1.2-.2 1.5.2.3.7-.2 1-1.1.7-1.7.1-2-.8-.4zM99 196c-1.2.7-1 .9.7.7 1.2 0 1.9-.5 1.7-.9-.6-1-.6-1-2.4.2zM630.5 204c.4 4.1.8 8.2 1 9 .1.8.6 3.5 1 6 .9 6 6.1 25.7 7.8 29.9 2 4.7 2.5 2.4 2.1-9.9-.3-11.5-2.7-22.4-7.1-32.3-4.7-10.9-5.6-11.3-4.8-2.7zM99.3 206.7c-1.5.5-1.7 2.3-.4 2.3.5 0 1.1-.7 1.5-1.5.3-.8.4-1.5.3-1.4-.1 0-.8.3-1.4.6zM192.7 208.3c-.3.8 0 1.4.7 1.4s1.3-.6 1.3-1.4c0-.7-.4-1.3-.8-1.3s-.9.6-1.2 1.3zM509.5 212.4c-1.3 1.9-3.6 3.6-6.1 4.5l-4.1 1.5.2 13.2c.1 7.3-.1 15.6-.5 18.6-.4 3-1.1 10.6-1.5 16.9l-.6 11.4 3.6-5c11.2-15.5 16.4-38.2 12.9-56.6-.7-4-1.5-7.3-1.6-7.4-.2-.2-1.2 1.1-2.3 2.9zM73 212.1c0 .5.5.7 1 .4.6-.3 1-.8 1-1.1 0-.2-.4-.4-1-.4-.5 0-1 .5-1 1.1zM165 212.2c0 1.1 1.2 1 3-.2 1.2-.7 1-.9-.8-.7-1.2 0-2.2.5-2.2.9zM151.4 215.4c.1.8.5 1.8.8 2.2.4.3.5-.1.4-1-.1-.8-.5-1.8-.8-2.2-.4-.3-.5.1-.4 1zM163.8 214.7c.6.2.9 1 .6 1.5-.4.7-.2.8.5.4 1.3-.9.5-2.6-1.2-2.5-.9 0-.8.2.1.6zM487.8 216.2c-2 3.1-3 5.8-3.4 9.1-.7 5.6-1.3 7.5-5 18.2-3.3 9.6-3.9 12.3-4.1 21.5-.3 12.8 0 12.6 9.1-5.3 10.6-20.7 13-31.7 9.1-41.5-1.9-4.7-3.6-5.3-5.7-2zM71.3 217.5c0 .8.4 1.5.9 1.5.4 0 .8-.4.8-.9 0-.6-.4-1.2-.8-1.5-.5-.3-.9.1-.9.9zM270.1 218.3c-.6.8-.8 1.7-.4 2 .7.8 3.3-1.1 3.3-2.4 0-1.3-1.6-1.1-2.9.4zM69.8 220.3c.8.9 1.1 2 .9 2.4-.3.5.3.9 1.3.9s1.7-.7 1.5-1.6c-.1-.8-.6-1.5-1.1-1.5-.5 0-1.6-.4-2.4-1-1.3-.7-1.3-.6-.2.8zM67.5 222c-.3.5-.1 1 .4 1 .6 0 1.1-.5 1.1-1 0-.6-.2-1-.4-1-.3 0-.8.4-1.1 1zM99 222.1c0 .5.5.7 1 .4.6-.3 1-.8 1-1.1 0-.2-.4-.4-1-.4-.5 0-1 .5-1 1.1zM95.3 223.9c-.9 1.1-2 1.8-2.5 1.5-.4-.3-.8-.1-.8.4 0 1.4 3.6 4.3 4.3 3.5.4-.3.7-.1.7.5 0 .7-.6 1.2-1.2 1.2-.9 0-.8.4.2 1 1.3.9 1.3 1 0 1-1 0-1.1.3-.4.8.6.4 1 1.5.9 2.4-.2.9.3 2.2 1.1 2.9.8.6 1.4.8 1.4.4s.6-.2 1.4.4c1 .8 1.6.9 2.1.1.3-.5.4-1.1.1-1.1-.3-.1-1-.3-1.6-.4-.5-.1-1.3-.3-1.7-.4-.4 0 .2-.8 1.3-1.6 1.8-1.5 1.8-1.5 0-.8-1.4.4-1.7.3-1.2-.6.4-.6.4-1.1-.1-1-2 .3-2.7-.2-1.3-1.1 1.1-.7 1.1-1 .2-1-.7 0-1-.5-.7-1.1.4-.5-.1-1.9-1.1-3-1.6-1.8-1.6-2 .1-3.9 1-1.1 1.5-2 1.1-2-.3 0-1.4.9-2.3 1.9zm3.3 13.7c.1.9 0 1.3-.4 1-.3-.4-.7-1.4-.8-2.2-.1-.9 0-1.3.4-1 .3.4.7 1.4.8 2.2zM137 224c0 .5.5 1 1.1 1 .5 0 .7-.5.4-1-.3-.6-.8-1-1.1-1-.2 0-.4.4-.4 1zM285.9 223.2c-.6 2-.6 3.9 0 4.2.4.3.7-.6.7-2 0-2-.4-3.2-.7-2.2z"/><path d="M351.3 225.6c-2.3 1.7-3.3 3.4-3.3 5.2 0 5.2 9.1 21.2 12.1 21.2 2 0 .8-8.2-2.1-14.4-1.7-3.5-3.1-8.2-3.3-10.5-.1-2.2-.2-4.1-.2-4.1s-1.5 1.2-3.2 2.6zM99 228.1c0 .5.5.7 1 .4.6-.3 1-.8 1-1.1 0-.2-.4-.4-1-.4-.5 0-1 .5-1 1.1zM99.6 231.3c.3 1 .9 1.5 1.2 1.2.3-.3 0-1.1-.7-1.8-1-.9-1.1-.8-.5.6zM127.8 230.7c.7.3 1.6.2 1.9-.1.4-.3-.2-.6-1.3-.5-1.1 0-1.4.3-.6.6zM57.3 236.9c0 1.1.5 1.8.9 1.5.4-.3.5-1.1.1-1.9-.7-2.1-1.2-1.9-1 .4zM188.6 246.8c-.3.5.1.9.9.9s1.2-.4.9-.9c-.3-.4-.7-.8-.9-.8-.2 0-.6.4-.9.8zM51 247.5c0 .5.5 1.7 1 2.5s1 1 1 .5c0-.6-.5-1.7-1-2.5s-1-1.1-1-.5zM50.1 251.6c0 1.1.3 1.4.6.6.3-.7.2-1.6-.1-1.9-.3-.4-.6.2-.5 1.3zM531.1 250.8c-.1.7-.5 1-1.1.7-.6-.3-1 .4-1.1 1.7 0 1.3-.2 3.2-.4 4.3-.2 1.1-.8 6.7-1.4 12.5-.7 5.8-1.4 12.1-1.6 14-.2 1.9-.7 6.2-1 9.5-.4 3.3-.9 7.6-1.1 9.5-.3 1.9-.7 5.1-.9 7-.2 1.9-.6 5.1-.9 7-.2 1.9-.7 5.7-1.1 8.5-.3 2.7-1.7 11.5-3.1 19.4-1.3 7.9-2.2 14.6-2.1 14.8 1.1 1.1 14.2-30.4 16.8-40.2 2.1-8.1 4.8-20.1 5.3-24 .4-2.2.9-5.4 1.1-7 1.1-6.7 1.8-20.6 1.6-30.8l-.1-3.8-2.7 2.1c-3 2.3-3.7 1.9-5.1-3-.6-1.9-1.1-2.9-1.1-2.2zM217.5 252.9c-.3.5-.2 1.2.3 1.5.5.3.9-.1.9-.9 0-1.7-.3-1.9-1.2-.6zM492.7 253.8c-4.1 4.5-10.8 23.1-12.6 34.6l-.8 5.9 1.9-2.4c5.5-6.8 12.1-24.7 13.3-36.1.5-4.4.4-4.4-1.8-2zM42 255.4c0 .2.8 1 1.8 1.7 1.5 1.3 1.6 1.2.3-.4s-2.1-2.1-2.1-1.3zM172 256c-.9.6-1 1-.3 1 .6 0 1.5-.5 1.8-1 .8-1.2.4-1.2-1.5 0zM258.4 259.7c.2 1 .6 1.7 1 1.6 1.5-.3 1.6-1.1.2-2.2-1.2-1-1.4-.9-1.2.6zM511.6 261.2c-.3.7-.9 3.8-1.5 6.8s-1.3 6.8-1.6 8.5c-.3 1.6-.8 4.3-1 6-.3 1.6-1.1 7-1.9 12-2 11.6-2.3 14.1-4.1 31l-.5 5 1.5-4c.8-2.2 3.9-11.7 6.9-21 3-9.4 7.2-22.5 9.4-29.3 2.2-6.7 3.8-12.2 3.6-12.2-.2 0-1.9 1.4-3.8 3-3.8 3.4-4.4 3.1-4.8-2.4-.2-3.9-1.5-5.7-2.2-3.4zM258.6 264.2c.3.4.9.8 1.5.8.5 0 .9-.4.9-.8 0-.5-.7-.9-1.5-.9s-1.2.4-.9.9zM351.5 263.9c-.3.5-.2 1.2.3 1.5.5.3.9-.1.9-.9 0-1.7-.3-1.9-1.2-.6zM347.3 265.2c-2 3.3 0 4.8 2.6 2 1.2-1.2 1.1-1.3-1-.7-2.1.7-2.2.6-1-.9.7-.9 1.1-1.6.8-1.6-.3 0-.9.6-1.4 1.2zM37.3 266.5c0 .8.4 1.2.9.9.5-.3.6-1 .3-1.5-.9-1.3-1.2-1.1-1.2.6zM143.4 267.5c-1.2.9-1.4 1.4-.6 1.5.8 0 2.3 1 3.4 2.2l2 2.3-1.6-2.5c-2.4-3.7-1.9-4.6 1.2-1.9l2.7 2.4-2.4-2.8c-2.9-3.2-2.3-3-4.7-1.2zM151.7 266.7c-1 .9-.9 2.3.1 2.3.5 0 .9-.7.9-1.5 0-1.7-.1-1.8-1-.8zM35.3 272.7c0 .9.4 1 1.4.2.7-.6 1.3-1.2 1.3-1.4 0-.1-.6-.2-1.3-.2-.8 0-1.4.6-1.4 1.4zM143.3 275.5c0 .8.4 1.5.9 1.5.4 0 .8-.4.8-.9 0-.6-.4-1.2-.8-1.5-.5-.3-.9.1-.9.9zM364.5 278c.3.5 1.1 1 1.6 1 .6 0 .7-.5.4-1-.3-.6-1.1-1-1.6-1-.6 0-.7.4-.4 1zM132.4 280.3c.1.7.5 1.8.9 2.4.5.7.6 1.7.3 2.1-.2.4.7.8 2.2.9 1.5 0 1.9-.1.9-.4-1.8-.5-1.8-3 0-2.6.5.1.9-.7.9-1.8 0-1.9-.1-1.9-1.3-.3-.7 1-1.3 1.3-1.3.7 0-.6-.6-1.3-1.4-1.6-.8-.3-1.3 0-1.2.6zM139.3 280.7c0 .9.4 1 1.4.2.7-.6 1.3-1.2 1.3-1.4 0-.1-.6-.2-1.3-.2-.8 0-1.4.6-1.4 1.4zM133.5 287.9c-.3.5-.1 1.2.5 1.6.6.4.8 1 .5 1.4-.2.5.1 1.6.8 2.5 1.2 1.6 1.3 1.6 1.4-.3.1-1.1-.2-2.3-.7-2.6-.5-.3-.7-1.2-.3-2 .6-1.6-1.2-2.1-2.2-.6zM137.1 288.6c0 1.1.3 1.4.6.6.3-.7.2-1.6-.1-1.9-.3-.4-.6.2-.5 1.3zM138 291.4c0 .2.7.6 1.5 1 .8.3 1.5.1 1.5-.4 0-.6-.7-1-1.5-1s-1.5.2-1.5.4zM23.7 293.1c.7.7 1.5 1 1.8.7.3-.3-.2-.9-1.2-1.2-1.4-.6-1.5-.5-.6.5zM300.1 295.6c0 1.1.3 1.4.6.6.3-.7.2-1.6-.1-1.9-.3-.4-.6.2-.5 1.3zM142.6 295.8c-.3.5.1.9.9.9s1.2-.4.9-.9c-.3-.4-.7-.8-.9-.8-.2 0-.6.4-.9.8zM147.5 296c-.3.5-.1 1 .4 1 .6 0 1.1-.5 1.1-1 0-.6-.2-1-.4-1-.3 0-.8.4-1.1 1zM21 298c0 .5.5 1 1.1 1 .5 0 .7-.5.4-1-.3-.6-.8-1-1.1-1-.2 0-.4.4-.4 1zM307 299.5c0 .8.5 1.5 1.1 1.5.5 0 .7.5.3 1.2-.4.7-.3.8.5.4.8-.6.9-1.2.2-2-.6-.7-.8-1.6-.4-1.9.3-.4.1-.7-.5-.7-.7 0-1.2.7-1.2 1.5zM305 302c0 .5.5 1 1.1 1 .5 0 .7-.5.4-1-.3-.6-.8-1-1.1-1-.2 0-.4.4-.4 1zM313 304c0 .5.5 1 1.1 1 .5 0 .7-.5.4-1-.3-.6-.8-1-1.1-1-.2 0-.4.4-.4 1zM146.1 305.9c-.8.5-2.1.7-3 .4-1.2-.3-1.1 0 .3 1.1 1.9 1.5 4.6 2.3 3.3.9-.4-.3-.2-1.2.4-2 1.3-1.5 1-1.6-1-.4zM15.5 309c-.3.5-.1 1 .4 1 .6 0 1.1-.5 1.1-1 0-.6-.2-1-.4-1-.3 0-.8.4-1.1 1zM153.4 310.2c-.4.7-.4 1 .1.6.4-.4 1.5-.2 2.4.5 1.4 1.1 1.4 1 .2-.6-1.6-2-1.8-2.1-2.7-.5zM227.1 314.7c1.6 9.6.9 11.1-1.5 3.3-2.4-7.7-2.6-7.7-4.2-.8-1.1 4.4-1.3 24.3-.3 29.3.6 3.2 1.8 5.7 3.3 7 5.5 4.6 8.1 10.8 17.1 41.9 2.6 8.7 4.9 16.6 5.2 17.5.4 1.1-.3.8-2-.8-3.1-2.8-3.5-2.2-.9 1.7 1 1.5 3.8 5.6 6.2 9.2 10 15.1 28 38.1 36.1 46.1 8.2 8.3 15 12.6 22.3 14.5 2.6.6 2.2-.2-5.5-10.7-4.5-6.3-11-15-14.3-19.4-24.3-32.5-33.4-51.9-50.7-108.6-5.6-18.4-10.5-33.8-10.9-34.2-.4-.4-.3 1.4.1 4zM313.6 311.3c.3 1 .9 1.5 1.2 1.2.3-.3 0-1.1-.7-1.8-1-.9-1.1-.8-.5.6zM13.3 312.7c0 .9.4 1 1.3.2.7-.6 1.9-.7 2.5-.3.7.4.9.3.5-.4-.9-1.5-4.3-1.1-4.3.5zM157 314.1c0 .5.5.7 1 .4.6-.3 1-.8 1-1.1 0-.2-.4-.4-1-.4-.5 0-1 .5-1 1.1zM315 316.1c0 .5.5.7 1 .4.6-.3 1-.8 1-1.1 0-.2-.4-.4-1-.4-.5 0-1 .5-1 1.1zM132.2 317.6c1 1 2 1.6 2.2 1.3.3-.3-.5-1.1-1.7-1.8-2.1-1.3-2.1-1.2-.5.5z"/><path d="M258.9 319c-.1 1.9-.2 4.6-.3 6-.5 4.6-1.6 16.4-2.2 24-.3 4.1-.8 7.7-1 7.9-.1.2-2-.7-4-2-2.6-1.6-3.9-1.9-4.2-1.1-.2.7-.9.9-1.5.5-1.4-.8.6 1.8 4.9 6.3 1.7 1.8 3.9 5.8 4.9 8.8l1.9 5.6 2.2-5.2c1.2-2.9 2.6-5.4 3.1-5.5.5-.2 2.8 4.5 5.2 10.4 5.5 13.4 9.7 22.7 16.7 36.6 4.3 8.5 5 10.6 3.4 9.7-2.4-1.3-24-22.6-28.8-28.5l-3.3-4 2.7 5.5c8 16.5 22.7 30.6 42.2 40.4 5.9 3 7.4 2.7 5.2-.9-.8-1.3-4.1-6.4-7.2-11.4-16.2-25.5-31.9-66-33.2-85.4-.7-11.1-6.5-26.1-6.7-17.7zM575.3 320.2c-4.7 6.6-6 9.6-11.9 27.6-6.5 19.5-7.7 22.5-18.2 45.2-4.4 9.7-17.9 36.6-20.9 41.9-6.5 11.2-21.1 32.3-31.4 45-4.7 5.9-4.6 5.9 8.1-1.9 17.5-10.7 32.8-24.8 43.2-39.7 6.6-9.4 18.2-29.2 17.6-29.9-.3-.2-2.7 2.1-5.4 5.3-5.4 6.4-8.9 10.4-11.9 13.7-1.1 1.2-4.9 5.6-8.5 9.6-3.6 4.1-7.7 8.8-9.3 10.5-1.6 1.7 0-1.6 3.8-8 13.8-23.1 26.8-51.4 35.5-77.4l4.8-14.4 1.2 5.9c3.8 18.4 4.7 17.6 7.4-6.1 1.1-9.6 1.1-30.8 0-31.2-.6-.2-2.4 1.6-4.1 3.9zM152 318c-.9.6-1 1-.3 1 .6 0 1.5-.5 1.8-1 .8-1.2.4-1.2-1.5 0zM85.6 318.8c-.2.4-.1 1.4.3 2.1.6 1 1 .9 1.4-.3.6-1.6-.8-3.2-1.7-1.8zM104.4 319.6c-1.8 1.4-1.8 1.5.4.4 1.2-.6 2.2-1.3 2.2-1.5 0-.8-.5-.6-2.6 1.1zM137 320.4c.7.7 1.3.7 2 0 .6-.6.3-1-1-1s-1.6.4-1 1zM80.1 323.9c-1 .7-.7.9 1.2.8 1.4-.1 2.3-.5 2-1-.6-.9-1.5-.9-3.2.2zM95.3 324.5c0 .8.4 1.2.9.9.5-.3.6-1 .3-1.5-.9-1.3-1.2-1.1-1.2.6zM63 326c0 .5.5 1 1 1 .6 0 1-.5 1-1 0-.6-.4-1-1-1-.5 0-1 .4-1 1zM331.4 325.7c.4.7.2 1.3-.4 1.3-.6 0-.8.5-.4 1.1.4.8.9.7 1.6-.2.7-1 .8-.8.5.9-.5 1.9-.3 2.1.9 1.1 1.2-.9 1.3-.6 1 2.1-.2 2.2 0 2.8.7 2.1.6-.6 1.8-1.1 2.7-1.1 1 0 1.1.3.4.8-.7.4-.8 1.5-.3 2.7.7 1.9.8 1.9.8-.3.1-1.3.5-2 1.1-1.7.6.4.8 1 .5 1.5-.3.4.2 1.3 1 2 1.2 1 1.3 1.6.4 2.7-.7.7-1 1.5-.8 1.7.8.8 3.7-4.1 3-5-1.4-1.9-13.3-12.8-12.7-11.7zm11.7 12c1.3 1.6 1.2 1.7-.3.4-1.7-1.3-2.2-2.1-1.4-2.1.2 0 1 .8 1.7 1.7zM195.1 332.1c-3.7 6.7-5.8 13.7-6.7 21.8-.6 5.8.3 16.1 1.5 16.1.4 0 2-2.6 3.6-5.8l3-5.7.5 16.5.5 16.5 3.2-9.2c6.6-18.5 7.8-28.7 4.9-41.8-1.3-6.1-5-14.5-6.4-14.5-.4 0-2.2 2.7-4.1 6.1zM539.2 328.5c0 1.6.2 2.2.5 1.2.2-.9.2-2.3 0-3-.3-.6-.5.1-.5 1.8zM39.3 329.5c0 .8.4 1.5.9 1.5.4 0 .8-.4.8-.9 0-.6-.4-1.2-.8-1.5-.5-.3-.9.1-.9.9zM4.2 330.2c-1.5 1.5-1.6 2.8-.2 2.8.6 0 .9-.6.8-1.3-.2-.6.3-1.1 1-.9.8.1 1.1-.2.7-.8-.8-1.3-.8-1.3-2.3.2zM42.7 330.4c-.4 1-.1 1.3.9.9 1.3-.5 1.9.8 1.5 3-.1.5.3.6.8.2.7-.4.6-1.4-.1-3-1.3-2.8-2.3-3.2-3.1-1.1zM51.6 329.8c-.2.4 0 1.4.6 2.2.8 1.2.9 1.2.5-.2-.3-.9-.1-1.9.6-2.2.9-.3.9-.5 0-.5-.6-.1-1.4.3-1.7.7zM60.5 330c-.3.6.1.7.9.4 1.8-.7 2.1-1.4.7-1.4-.6 0-1.3.4-1.6 1zM329 330c0 .5.5 1 1.1 1 .5 0 .7-.5.4-1-.3-.6-.8-1-1.1-1-.2 0-.4.4-.4 1zM605 332.2c0 1.5-1.5 4.4-3.5 6.9-2 2.3-4.1 5.1-4.7 6.3-1.1 2.1-1.3 12.1-.3 22.6.2 3 .7 11.1 1.1 18 .3 6.9.7 12.7.9 12.9.2.2.3-10.4.2-23.5-.2-26.3.2-28.4 5.2-28.4 1.9 0 3.2.7 4 2.4 1.1 2 1 3.4-.9 9-2.8 8.4-3.3 11.6-3.3 19.1-.1 6.3 2.7 17.5 4.3 17.5 2.6 0 6-19.2 5.5-32-.3-10.5-3.5-24.4-7-30.9l-1.4-2.6-.1 2.7zM331.5 332.9c-.3.5-.2 1.2.3 1.5.5.3.9-.1.9-.9 0-1.7-.3-1.9-1.2-.6zM13.3 339.7c-1 1-1.4 1.5-.8 1.1.7-.4 1.5-.5 1.8-.1.4.3.7.1.7-.5s.8-1.3 1.8-1.5c1.4-.4 1.5-.5.1-.6-.9 0-2.5.7-3.6 1.6zM21.6 339.7c-.6 1.4-.5 1.5.5.6.7-.7 1-1.5.7-1.8-.3-.3-.9.2-1.2 1.2z"/><path d="M339 340.1c0 .5.5.7 1 .4.6-.3 1-.8 1-1.1 0-.2-.4-.4-1-.4-.5 0-1 .5-1 1.1zM536.6 342.7c-1.1 6.2-15.3 40.9-22 53.8-3.4 6.6-10.2 18.7-14.9 26.9-9.7 16.5-9.8 16.4 2.1 10.9 11.6-5.4 23.6-15.3 30.2-24.8 6.3-9.2 12.1-23.8 14.9-37.7.9-4 2.2-6.6 4.5-9.1 1.8-2 3.6-4.6 3.9-5.8.5-1.8-.2-1.4-3.6 1.9-2.4 2.3-4.6 4.2-5 4.2-1.8 0-7.5-14.9-7.9-20.8-.3-4.3-1.4-4.1-2.2.5zM355.3 350.7c-.7.3-1.3 1.2-1.2 2.1 0 1.2.2 1.3.6.4.4-1 1-.9 2.6.5 1.1 1 1.7 1.3 1.4.7-.4-.7.2-1.4 1.3-1.7 1.1-.3 2-1 2-1.6 0-.8-.6-.9-1.8-.2-1.1.6-2.3.6-2.8.2-.5-.5-1.5-.6-2.1-.4zM359 356.8c0 .7-.5 1-1.2.6s-.8-.3-.4.5c.4.6 1.2.8 1.8.5.8-.5.9-.1.4 1.2-.5 1.4-.4 1.6.4.7.9-.8.9-1.6.1-3-.6-1-1.1-1.3-1.1-.5zM587.1 365.8c-1.4 3.1-3.9 8.8-5.7 12.7-1.7 3.8-4.6 10.4-6.4 14.5-1.8 4.1-4.4 10-5.8 13-8.9 19.6-21.1 47.4-20.9 47.7 1 1 29.7-29.4 29.7-31.4 0-.4-3.6 3.1-8.1 7.8-4.4 4.6-7.9 7.9-7.7 7.3 1.6-5.8 23.4-62.4 24-62.4.4 0 .8.9.8 2 0 2.8 2 2.5 2-.3.1-1.2.3-5.5.6-9.5.3-3.9.4-7.2.2-7.2-.1 0-1.4 2.6-2.7 5.8zM192 428.8c0 1 1.3 3.9 3 6.3 1.6 2.4 3 5 3 5.6 0 .7.9 1.3 2 1.3s2-.6 2-1.3c-.1-2.9-4-9.6-6.9-11.6-3-2.1-3.1-2.1-3.1-.3zM579 434.2c-1.9 3.3-6.8 9.4-11 13.5l-7.4 7.5 8.8-5.6c11.3-7.3 11.4-7.4 10.9-3.9-.4 2.7-.3 2.6 1.2-.6 1.8-3.9 1.8-4.4.5-3.6-1.3.8-1.3-.9 0-7.5.6-2.9.9-5.4.8-5.6-.2-.1-1.9 2.5-3.8 5.8zM255.1 444c0 2.1 2.6 13.1 3.3 13.7.3.3.8-.2 1.2-1.1.6-1.6 5.2-2.2 7-.9.5.5-.9-1-3.1-3.2s-5-5.4-6.2-7c-1.3-1.8-2.2-2.4-2.2-1.5zM218.6 457.3c-.5 1.6-.4 3.8.1 5 1.3 2.9 2 1 1.3-3.8-.6-3.9-.6-4-1.4-1.2zM556.1 489.6c0 1.1.3 1.4.6.6.3-.7.2-1.6-.1-1.9-.3-.4-.6.2-.5 1.3z"/></svg>